<?xml version="1.0" standalone="no"?>
<!DOCTYPE svg PUBLIC "-//W3C//DTD SVG 20010904//EN"
 "http://www.w3.org/TR/2001/REC-SVG-20010904/DTD/svg10.dtd">
<svg version="1.0" xmlns="http://www.w3.org/2000/svg"
 width="300.000000pt" height="225.000000pt" viewBox="0 0 300.000000 225.000000"
 preserveAspectRatio="xMidYMid meet">
<metadata>
Created by potrace 1.10, written by Peter Selinger 2001-2011
</metadata>
<g transform="translate(0.000000,225.000000) scale(0.100000,-0.100000)"
fill="#38761d" stroke="none">
<path d="M1582 2025 c-7 -8 -9 -15 -5 -15 5 0 10 -12 11 -27 1 -15 7 -32 12
-37 6 -6 7 1 1 22 -8 26 -6 32 10 37 10 4 19 11 19 18 0 8 -3 8 -12 -1 -17
-17 -29 -15 -22 3 8 19 3 19 -14 0z"/>
<path d="M1639 2008 c-7 -13 -17 -26 -23 -30 -7 -5 -7 -11 3 -20 8 -7 11 -8 8
-2 -3 6 3 18 14 27 10 9 19 24 19 32 0 21 -7 19 -21 -7z"/>
<path d="M1535 2000 c-7 -22 2 -43 14 -35 5 2 6 -7 3 -22 l-5 -26 -18 24 c-10
13 -19 20 -18 14 0 -15 21 -40 51 -59 15 -10 25 -22 22 -28 -3 -5 -12 -4 -22
4 -13 11 -14 11 -10 -2 8 -25 34 -23 51 4 18 27 13 56 -8 56 -8 0 -15 12 -17
28 -2 16 -8 26 -17 24 -8 -2 -11 3 -8 12 4 9 2 18 -3 21 -5 3 -11 -4 -15 -15z
m75 -95 c0 -12 -19 -12 -23 0 -4 9 -1 12 9 8 7 -3 14 -7 14 -8z"/>
<path d="M1670 1970 c0 -5 7 -10 15 -10 8 0 15 5 15 10 0 6 -7 10 -15 10 -8 0
-15 -4 -15 -10z"/>
<path d="M1640 1960 c0 -5 5 -10 10 -10 6 0 10 5 10 10 0 6 -4 10 -10 10 -5 0
-10 -4 -10 -10z"/>
<path d="M1675 1940 c-3 -5 -13 -6 -21 -3 -12 4 -15 0 -14 -18 3 -39 1 -51
-11 -43 -6 3 -3 -9 6 -27 l16 -34 -20 23 c-11 13 -22 18 -26 12 -3 -5 -4 -13
-1 -18 2 -4 -2 -16 -11 -27 -10 -14 -14 -15 -13 -5 4 27 0 41 -9 36 -5 -4 -18
6 -29 21 -12 16 -24 24 -29 19 -4 -5 -2 -11 5 -13 6 -3 12 -11 12 -19 0 -9 -4
-13 -9 -10 -13 8 -42 -4 -35 -15 3 -5 15 -7 27 -3 22 5 23 2 21 -50 -1 -33 2
-53 8 -50 5 3 7 8 4 11 -3 3 -1 14 4 24 7 11 7 20 0 24 -13 8 -9 56 5 52 5 -2
12 -12 13 -22 3 -12 0 -15 -9 -10 -8 5 -10 4 -5 -3 4 -7 16 -12 27 -12 10 0
19 -4 19 -9 0 -5 7 -11 15 -15 13 -5 14 -2 4 15 -6 11 -8 23 -5 27 3 3 6 -1 6
-9 0 -8 9 -3 23 13 21 24 26 25 48 15 30 -16 31 -35 0 -55 -23 -16 -24 -16
-10 5 7 12 17 19 21 17 4 -3 8 0 8 5 0 18 -57 13 -64 -5 -3 -9 -4 -20 0 -25 3
-5 0 -9 -7 -9 -7 0 -9 -3 -5 -7 21 -21 117 11 98 32 -4 5 -1 5 6 1 6 -4 12 -2
12 3 0 6 5 11 11 11 8 0 8 -5 -1 -15 -7 -8 -9 -15 -4 -15 5 0 3 -4 -5 -9 -7
-5 -10 -14 -6 -20 5 -9 11 -7 20 6 7 10 11 22 7 28 -3 5 3 3 14 -5 18 -14 18
-14 5 3 -11 14 -11 20 -1 32 11 13 8 15 -14 15 -23 0 -26 3 -21 20 5 15 3 18
-9 14 -14 -5 -21 5 -17 28 0 4 -9 6 -20 5 -14 -1 -19 -7 -16 -19 7 -23 -8 -32
-30 -18 -16 10 -16 11 2 5 16 -5 18 -4 8 6 -14 14 -17 30 -5 27 13 -2 42 14
42 24 0 5 -5 6 -12 2 -8 -5 -9 -2 -5 9 3 10 2 17 -4 17 -6 0 -7 5 -4 10 3 6 4
10 1 10 -3 0 -7 -4 -11 -10z m-3 -42 c-6 -6 -12 -4 -16 7 -3 9 -2 13 4 10 6
-3 10 0 11 7 0 10 2 10 6 0 3 -8 1 -18 -5 -24z m62 -81 c7 -6 6 -7 -4 -4 -8 2
-16 12 -17 23 -2 13 -1 15 4 4 3 -8 11 -19 17 -23z m-54 -37 c0 -5 -4 -10 -10
-10 -5 0 -10 5 -10 10 0 6 5 10 10 10 6 0 10 -4 10 -10z"/>
<path d="M1255 1833 c8 -46 13 -52 25 -33 14 21 12 32 -2 24 -10 -6 -10 -4 0
7 18 20 15 34 -5 18 -15 -12 -16 -12 -10 4 4 9 2 17 -4 17 -7 0 -9 -13 -4 -37z"/>
<path d="M1220 1838 c0 -21 18 -43 27 -34 4 5 2 11 -5 13 -6 3 -10 9 -7 13 3
5 1 11 -5 15 -5 3 -10 0 -10 -7z"/>
<path d="M1393 1824 c-9 -9 -9 -14 -1 -16 11 -4 19 -58 8 -58 -3 0 -13 12 -23
28 -10 15 -17 20 -16 12 3 -30 -1 -47 -17 -66 -15 -19 -15 -19 -10 1 4 14 -1
24 -14 33 -31 19 -26 -7 11 -51 17 -20 27 -37 22 -37 -5 0 -13 4 -19 10 -6 6
-10 1 -12 -17 -3 -37 -9 -39 -33 -12 -15 17 -19 19 -15 7 3 -10 1 -18 -5 -18
-6 0 -8 -4 -4 -9 3 -5 1 -12 -4 -15 -5 -3 -11 1 -15 9 -3 8 -13 15 -23 15 -17
-1 -17 -1 0 -15 29 -21 18 -49 -21 -53 -24 -2 -32 1 -32 12 0 22 -9 20 -29 -6
-14 -16 -20 -18 -26 -8 -6 9 -4 11 5 5 8 -5 11 -4 6 3 -4 6 -13 9 -21 5 -8 -3
-15 0 -15 6 0 6 -7 11 -15 11 -9 0 -15 -9 -14 -22 0 -22 1 -22 9 -3 8 19 9 19
9 -3 1 -14 5 -20 12 -17 6 4 17 -1 25 -11 9 -11 13 -14 10 -7 -8 14 20 23 58
18 39 -5 62 8 81 46 9 17 21 29 27 27 14 -5 24 -29 11 -27 -27 5 -35 -1 -23
-16 10 -12 10 -15 -3 -15 -22 0 -17 -51 7 -72 26 -24 29 -22 11 5 -14 21 -13
27 5 65 11 22 20 46 20 52 0 6 5 8 10 5 7 -4 7 -13 0 -26 -12 -22 2 -26 19 -5
9 10 8 16 -4 26 -17 14 -20 40 -4 40 5 0 8 -4 5 -9 -3 -4 3 -16 14 -26 17 -16
20 -16 20 -2 0 8 -5 17 -12 19 -9 3 -8 15 4 46 14 36 14 42 2 42 -9 0 -13 4
-9 10 9 14 32 1 38 -21 5 -20 27 -27 27 -8 0 5 4 8 9 5 5 -4 7 4 5 16 -3 19
-1 18 8 -4 6 -15 18 -30 25 -32 16 -6 17 20 2 37 -5 7 -25 33 -42 58 -26 37
-35 44 -44 33z m39 -77 c-5 -20 -5 -20 -14 2 -4 13 -5 27 -2 33 10 16 22 -11
16 -35z"/>
<path d="M1130 1821 c0 -6 5 -13 10 -16 15 -9 12 -25 -5 -25 -8 0 -15 -4 -15
-10 0 -14 13 -13 28 2 7 7 12 8 12 2 0 -5 -6 -16 -12 -23 -11 -10 -9 -15 6
-27 16 -11 22 -11 29 -1 5 7 6 3 2 -12 -5 -17 -4 -22 5 -16 9 5 11 4 6 -4 -4
-7 -13 -10 -19 -8 -7 2 -18 -3 -25 -12 -11 -14 -12 -14 -10 4 2 11 8 23 13 27
6 5 5 8 -3 8 -23 0 -30 -42 -10 -62 10 -10 23 -18 28 -18 10 0 14 -15 10 -35
-1 -5 2 -7 6 -3 4 4 13 3 20 -3 8 -7 14 -6 20 2 4 8 3 9 -4 5 -7 -4 -12 -1
-12 9 0 9 -5 13 -11 9 -7 -4 -10 -1 -7 7 3 8 -1 22 -10 32 -14 15 -13 17 6 17
11 0 23 -6 26 -12 3 -7 4 0 1 15 -5 26 -4 27 15 17 21 -11 27 -30 9 -30 -5 0
-7 -5 -4 -10 11 -18 27 1 22 26 -5 30 22 34 30 4 8 -30 20 -24 20 10 0 17 -4
30 -9 30 -4 0 -8 -5 -8 -10 0 -7 -7 -7 -21 0 -15 8 -24 8 -34 0 -10 -8 -17 -7
-29 5 -15 15 -13 41 2 31 4 -2 16 8 26 22 16 21 17 24 3 19 -8 -3 -18 -1 -21
6 -3 8 -7 9 -13 2 -14 -19 -54 -5 -52 18 0 9 2 9 6 0 6 -16 33 -17 33 -2 0 5
-4 8 -9 4 -5 -3 -12 -1 -16 5 -8 13 -35 13 -35 1z m65 -67 c-9 -9 -19 -13 -23
-10 -3 4 0 11 8 16 24 15 33 11 15 -6z m-20 -104 c3 -5 2 -10 -4 -10 -5 0 -13
5 -16 10 -3 6 -2 10 4 10 5 0 13 -4 16 -10z"/>
<path d="M2219 1788 c-6 -27 -6 -44 0 -53 9 -12 8 -26 -2 -42 -9 -15 -1 -33
14 -33 5 0 9 8 7 18 -2 9 2 16 9 15 9 -2 10 4 3 23 -6 14 -8 30 -4 35 3 5 -2
16 -10 25 -9 8 -16 14 -17 12z m21 -32 c0 -3 -4 -8 -10 -11 -5 -3 -10 -1 -10
4 0 6 5 11 10 11 6 0 10 -2 10 -4z"/>
<path d="M1261 1773 c0 -7 -8 -13 -16 -13 -8 0 -15 -7 -15 -15 0 -11 8 -15 25
-12 25 3 47 17 27 17 -6 0 -13 8 -15 18 -3 9 -5 11 -6 5z"/>
<path d="M2161 1764 c0 -11 3 -14 6 -6 3 7 2 16 -1 19 -3 4 -6 -2 -5 -13z"/>
<path d="M2182 1751 c-1 -16 5 -34 13 -41 12 -10 15 -10 15 4 0 9 -5 16 -10
16 -6 0 -8 11 -4 25 3 14 2 25 -3 25 -5 0 -10 -13 -11 -29z"/>
<path d="M1480 1750 c6 -11 14 -20 18 -20 18 0 10 -42 -8 -47 -11 -3 -17 -9
-14 -14 3 -5 0 -9 -5 -9 -10 0 -15 14 -12 33 1 10 -17 9 -23 -2 -3 -5 -14 -7
-24 -5 -10 3 -22 -3 -30 -16 -7 -11 -8 -20 -3 -20 6 0 14 7 19 16 8 14 12 14
30 3 12 -8 22 -21 22 -29 -1 -12 -3 -12 -14 3 -18 23 -26 22 -26 -5 0 -12 -3
-19 -6 -15 -3 3 -17 -6 -31 -21 -20 -21 -23 -33 -19 -64 4 -29 2 -38 -9 -38
-7 0 -17 -5 -21 -11 -4 -8 3 -9 25 -4 27 6 31 4 31 -14 0 -25 -20 -28 -21 -3
0 11 -2 12 -6 4 -3 -7 0 -19 7 -27 9 -11 7 -14 -10 -12 -15 1 -20 6 -16 20 4
15 2 16 -10 6 -8 -6 -14 -18 -14 -25 0 -8 -4 -14 -10 -14 -5 0 -10 7 -10 15 0
9 -6 12 -15 9 -20 -8 -19 -24 2 -24 13 0 14 -3 5 -12 -7 -7 -12 -23 -11 -38 0
-14 3 -20 5 -13 3 7 12 9 20 6 7 -3 12 -9 9 -13 -2 -4 5 -7 17 -6 12 0 23 -4
25 -9 2 -6 -9 -11 -24 -10 -21 0 -28 -5 -27 -17 1 -10 -2 -16 -6 -13 -4 3 -11
-7 -15 -22 -4 -16 -2 -29 4 -31 12 -4 3 -32 -10 -32 -5 0 -14 11 -21 25 -6 13
-15 22 -20 19 -5 -3 -18 2 -29 12 -10 9 -19 13 -19 8 0 -11 42 -39 53 -36 5 1
6 -2 2 -8 -7 -12 -65 25 -65 41 0 6 -4 7 -10 4 -5 -3 -10 -13 -10 -21 0 -8 5
-12 10 -9 6 3 10 2 10 -3 0 -10 -24 -33 -31 -29 -2 1 -1 -2 3 -7 9 -12 41 1
33 14 -3 5 1 10 9 10 9 0 15 -6 14 -12 -2 -8 7 -12 24 -11 19 1 28 -4 33 -20
4 -12 7 -26 6 -30 -1 -5 3 -6 8 -3 5 3 7 15 4 26 -4 14 0 20 11 20 11 0 14 -5
10 -12 -5 -7 -3 -8 5 -3 9 5 9 11 3 17 -13 13 -4 38 13 38 8 0 17 -5 21 -12 5
-8 2 -9 -9 -5 -10 3 -17 2 -17 -3 0 -6 4 -10 9 -10 6 0 6 -12 0 -30 -6 -16
-15 -27 -20 -24 -5 3 -9 0 -9 -5 0 -17 -28 -13 -38 5 -8 14 -13 14 -33 3 -16
-8 -20 -14 -10 -17 7 -2 17 1 21 8 5 8 10 9 14 2 4 -6 -2 -16 -13 -21 -27 -15
-50 12 -28 34 9 8 20 15 26 15 6 0 11 5 11 10 0 7 -6 7 -18 1 -23 -12 -108 -7
-105 7 1 5 -6 12 -17 15 -17 4 -18 2 -9 -14 5 -10 14 -20 19 -20 6 -1 15 -3
20 -4 6 -1 13 -3 18 -4 4 -1 0 -5 -7 -10 -9 -6 -22 -6 -34 1 -16 8 -19 7 -14
-5 3 -9 0 -14 -11 -13 -11 1 -16 -7 -16 -26 -1 -14 -4 -30 -9 -34 -4 -4 0 -18
8 -31 16 -24 13 -43 -7 -43 -5 0 -7 7 -4 16 10 25 -4 37 -20 17 -11 -14 -13
-15 -14 -3 0 13 -1 13 -10 0 -14 -22 -25 -3 -13 23 10 22 9 23 -12 20 -14 -3
-24 1 -29 12 -6 17 12 50 22 40 3 -2 -1 -11 -7 -19 -8 -10 -9 -16 -1 -21 15
-9 30 3 23 20 -3 9 1 15 10 15 30 0 30 23 1 47 -16 13 -24 23 -19 21 6 -2 11
0 13 5 1 4 0 7 -3 7 -3 0 -9 0 -15 0 -15 0 -12 -26 5 -40 17 -14 20 -30 4 -30
-5 0 -8 4 -5 9 4 5 -5 4 -19 -2 -14 -7 -25 -20 -25 -29 0 -10 -4 -18 -10 -18
-5 0 -7 7 -4 15 4 8 1 15 -6 15 -6 0 -8 -4 -5 -10 9 -15 -5 -12 -22 5 -9 10
-23 13 -35 9 -15 -4 -18 -3 -13 6 6 9 4 11 -5 5 -10 -6 -9 -11 5 -22 18 -12
18 -13 -3 -13 -15 0 -22 -6 -22 -19 0 -11 -5 -23 -10 -26 -12 -7 -4 -25 12
-25 5 0 8 6 5 13 -3 8 -1 20 5 28 9 13 7 -15 -5 -68 -4 -20 -27 -30 -27 -12 0
8 -6 5 -16 -7 -8 -10 -13 -13 -9 -6 3 6 2 12 -3 12 -12 0 -23 -38 -12 -45 4
-3 13 2 20 10 16 20 70 19 98 -1 12 -8 22 -12 22 -9 0 3 9 1 20 -5 27 -14 25
-25 -4 -25 -13 0 -22 3 -20 7 2 4 0 9 -6 13 -9 6 -10 2 -10 -22 0 -5 8 -8 18
-9 35 -2 42 -4 42 -13 0 -4 -17 -7 -37 -5 -22 1 -32 -1 -24 -5 9 -6 10 -11 2
-15 -12 -8 -45 20 -55 48 -5 14 -10 16 -18 8 -8 -8 -14 -7 -23 5 -8 11 -14 12
-19 5 -4 -6 6 -18 24 -27 24 -13 30 -21 26 -38 -3 -12 -3 -16 0 -9 7 15 31 16
40 0 5 -8 2 -9 -10 -5 -10 4 -15 3 -11 -3 3 -6 0 -10 -8 -10 -18 0 -17 -38 1
-49 19 -12 4 -40 -19 -34 -14 4 -18 1 -14 -10 4 -8 17 -14 31 -14 14 0 23 2
20 5 -3 2 1 20 10 40 8 19 12 37 9 40 -3 3 -5 0 -5 -6 0 -6 -7 -9 -15 -6 -8 4
-15 10 -15 14 0 13 83 50 96 42 12 -7 14 -11 14 -33 0 -6 9 -8 20 -4 17 5 20
2 20 -20 0 -14 -4 -24 -9 -21 -5 3 -12 -1 -15 -10 -3 -9 -12 -14 -20 -11 -7 3
-19 0 -25 -6 -8 -8 -11 -8 -11 1 0 11 13 16 33 13 4 0 7 6 7 15 0 8 -4 12 -10
9 -5 -3 -12 6 -16 20 -9 34 -16 31 -35 -14 -14 -32 -14 -39 -3 -34 10 4 12 0
8 -11 -3 -9 -9 -16 -13 -16 -13 0 -9 -41 5 -47 8 -3 14 -10 14 -15 0 -6 -8 -7
-17 -3 -10 4 -23 8 -29 9 -7 1 -19 8 -28 15 -8 7 -20 10 -25 6 -6 -3 -24 1
-40 10 -32 16 -55 20 -47 7 3 -4 28 -14 55 -22 50 -13 61 -23 41 -35 -5 -3
-10 0 -10 7 0 10 -2 10 -9 -1 -7 -11 -10 -10 -18 3 -12 22 -50 29 -57 10 -3
-8 -2 -14 2 -15 17 -2 45 -8 58 -13 17 -7 18 -32 2 -42 -8 -5 -9 -2 -5 9 3 10
2 17 -2 17 -5 0 -11 -7 -15 -15 -3 -8 -10 -15 -16 -15 -6 0 -9 4 -6 9 10 15
-6 43 -20 37 -8 -3 -14 1 -14 9 0 8 -5 15 -11 15 -6 0 -9 -7 -6 -15 6 -15 -8
-31 -16 -18 -2 5 -3 3 -1 -3 1 -6 -3 -17 -9 -23 -8 -8 -8 -11 1 -11 7 0 12 4
12 9 0 15 30 22 48 11 14 -8 14 -9 2 -10 -13 0 -13 -1 0 -10 12 -8 10 -10 -8
-10 -13 0 -20 4 -17 10 3 6 2 10 -3 10 -6 0 -12 -7 -16 -15 -3 -8 -1 -15 4
-15 22 0 8 -16 -15 -18 -14 -1 -25 3 -25 9 0 5 5 7 10 4 6 -3 10 -2 10 4 0 5
-5 13 -11 16 -6 4 -8 13 -5 20 2 7 -1 18 -7 25 -9 10 -9 11 1 6 6 -4 12 -2 12
3 0 6 -4 11 -10 11 -5 0 -10 5 -10 11 0 6 9 8 20 4 27 -8 26 13 -1 23 -20 8
-20 8 2 27 18 16 21 17 16 3 -8 -24 14 -50 33 -38 13 9 13 10 0 10 -9 0 -16
10 -17 23 -3 30 -41 61 -59 47 -10 -9 -11 -6 -6 12 5 20 3 21 -10 10 -9 -7
-14 -21 -11 -32 6 -22 18 -26 28 -10 8 13 35 13 35 1 0 -5 -9 -12 -19 -16 -17
-5 -37 -45 -23 -45 6 0 9 -34 11 -122 1 -20 5 -26 21 -25 11 1 20 5 20 9 0 5
9 4 20 -2 32 -17 98 7 69 26 -8 4 -9 3 -5 -4 4 -7 1 -12 -8 -12 -9 0 -16 7
-16 15 0 15 31 21 44 7 4 -4 13 -7 19 -7 7 0 11 -13 11 -30 -1 -17 3 -33 10
-37 17 -11 23 -10 23 7 0 8 -4 12 -9 9 -4 -3 -8 2 -8 10 0 9 7 16 15 16 8 0
15 7 15 16 0 14 -3 14 -15 4 -12 -10 -15 -10 -15 4 0 20 24 21 40 1 17 -20 30
-19 30 3 1 13 5 11 21 -10 17 -22 26 -27 46 -21 21 5 25 3 20 -10 -5 -14 -2
-15 19 -7 14 6 37 7 52 4 26 -6 26 -5 7 8 -31 22 -53 28 -59 15 -3 -9 -7 -8
-15 3 -5 8 -7 18 -5 22 3 4 0 8 -7 8 -7 0 -10 3 -7 6 4 3 18 -2 32 -11 14 -10
26 -13 26 -7 0 6 -7 15 -16 20 -11 6 -13 11 -5 16 6 4 11 12 11 19 0 6 -6 3
-12 -6 -9 -11 -21 -15 -35 -11 -27 7 -31 24 -5 24 14 0 15 2 2 10 -26 17 -37
11 -32 -16 4 -20 2 -25 -8 -19 -8 5 -11 4 -6 -3 4 -6 13 -9 21 -5 8 3 15 1 15
-5 0 -6 3 -19 7 -29 6 -17 6 -17 -14 0 -11 9 -22 14 -25 11 -4 -3 -9 4 -13 15
-6 19 -11 22 -32 20 -4 0 -10 8 -14 18 -7 16 -8 16 -8 1 -1 -9 -6 -20 -13 -24
-8 -5 -9 -2 -5 9 3 10 2 17 -3 17 -6 0 -10 5 -10 10 0 10 53 5 72 -6 14 -9 21
25 8 41 -6 8 -10 22 -8 31 3 18 16 22 83 28 57 5 57 5 50 16 -3 6 -2 10 4 10
6 0 8 6 5 14 -3 8 -12 12 -20 9 -8 -3 -14 -1 -14 4 0 19 14 23 30 8 16 -14 18
-14 23 -1 7 18 -28 42 -38 26 -3 -5 -11 -10 -16 -10 -6 0 -7 5 -3 11 4 8 0 9
-15 4 -15 -5 -21 -2 -21 9 0 18 25 22 35 6 3 -5 11 -10 16 -10 6 0 7 6 3 12
-13 21 -12 51 2 85 7 18 9 35 4 38 -5 3 -14 -11 -20 -30 -12 -36 -30 -48 -30
-19 0 8 5 12 10 9 6 -3 10 1 10 9 0 10 -6 13 -17 10 -14 -5 -15 -4 -4 4 7 5
10 15 7 21 -4 6 0 11 9 11 10 0 14 -5 10 -12 -4 -7 0 -5 8 5 13 15 17 16 24 4
8 -14 74 -41 70 -29 -1 4 1 8 6 10 4 1 7 0 7 -3 0 -3 0 -10 0 -16 0 -6 -9 -9
-20 -6 -11 3 -18 1 -14 -4 3 -5 -1 -9 -9 -9 -8 0 -20 -7 -28 -16 -10 -13 -10
-17 2 -25 20 -12 29 -11 29 4 0 6 5 19 10 27 9 13 11 13 20 0 8 -12 10 -12 10
-1 0 11 3 11 16 1 12 -11 15 -11 12 0 -2 7 4 15 12 17 9 3 11 1 5 -4 -14 -11
-13 -35 3 -40 7 -3 12 4 12 16 0 22 14 28 25 11 3 -5 1 -10 -5 -10 -8 0 -10
-9 -6 -25 4 -16 2 -24 -5 -23 -6 2 -14 -3 -16 -9 -8 -21 15 -15 31 8 16 24 36
18 36 -11 0 -14 5 -18 18 -13 15 6 15 5 3 -11 -10 -12 -17 -14 -25 -6 -13 13
-26 13 -26 0 0 -5 5 -9 11 -7 6 1 15 -8 20 -20 7 -18 3 -26 -21 -43 -16 -11
-32 -30 -35 -41 -5 -14 -10 -18 -17 -11 -7 7 -2 18 13 33 l23 23 -25 10 c-13
6 -30 16 -37 23 -7 7 -19 10 -26 7 -8 -3 -17 0 -21 6 -5 8 -12 4 -22 -10 -8
-12 -12 -24 -9 -27 3 -4 6 -1 6 5 0 7 7 12 16 12 11 0 6 -9 -15 -31 -35 -34
-38 -41 -16 -33 8 4 15 1 15 -5 0 -17 -28 -13 -39 7 -9 15 -10 15 -11 1 0 -9
10 -23 23 -32 12 -8 18 -19 14 -23 -4 -5 -12 -2 -18 6 -8 13 -10 13 -19 0 -9
-13 -14 -7 -11 12 0 4 -8 12 -19 18 -14 7 -20 7 -20 0 0 -5 4 -10 9 -10 5 0
11 -10 14 -21 4 -15 11 -20 22 -15 19 7 69 -39 60 -55 -4 -6 1 -17 11 -25 18
-14 17 -15 -6 -8 -24 7 -23 5 6 -20 18 -14 37 -26 43 -26 6 0 16 -12 22 -28
10 -26 11 -26 24 -8 13 18 16 18 39 2 34 -22 52 -51 74 -119 l19 -56 -47 37
c-36 28 -45 42 -42 59 2 13 8 23 13 23 5 0 9 7 9 15 0 18 -16 20 -24 3 -3 -7
-3 -2 0 12 4 22 4 23 -6 7 -7 -10 -9 -30 -6 -45 6 -24 5 -25 -7 -10 -8 10 -17
14 -21 10 -4 -4 -7 -2 -6 3 6 29 0 35 -22 23 -12 -7 -29 -19 -36 -26 -8 -7
-26 -12 -40 -10 -26 3 -43 -17 -20 -25 7 -2 5 -3 -4 -2 -9 2 -25 -3 -36 -11
-11 -7 -22 -10 -26 -7 -13 13 -5 -14 11 -37 16 -24 16 -24 0 -11 -9 7 -17 12
-18 10 -11 -53 -10 -56 22 -53 27 3 30 2 19 -11 -11 -13 -10 -14 3 -9 21 8 29
31 13 37 -24 9 -6 74 21 74 14 0 14 -2 -1 -12 -17 -13 -23 -31 -7 -21 5 3 11
-1 15 -9 3 -8 13 -15 23 -15 17 1 16 2 -1 15 -11 8 -14 15 -8 15 7 0 12 7 12
16 0 9 6 14 13 11 6 -2 10 -13 9 -23 -2 -10 0 -16 4 -11 4 4 15 0 25 -9 17
-15 17 -18 1 -42 -9 -14 -16 -28 -14 -29 1 -2 -1 -11 -6 -19 -8 -14 -11 -13
-27 7 l-17 24 4 -32 c4 -32 4 -33 -15 -15 -11 9 -17 11 -13 5 11 -19 -5 -15
-20 5 -12 16 -13 16 -14 -4 0 -15 8 -24 25 -28 14 -4 25 -10 25 -15 0 -5 10
-7 23 -4 17 3 19 2 6 -6 -19 -12 -48 -9 -58 8 -6 10 -10 9 -14 -3 -4 -9 -12
-16 -19 -16 -8 0 -9 3 -3 8 6 4 10 13 9 20 -1 6 -2 17 -3 23 0 5 -5 8 -10 5
-4 -3 -17 1 -27 9 -17 13 -17 16 -4 26 12 8 12 10 1 7 -8 -2 -19 -13 -25 -23
-14 -25 -33 -45 -41 -45 -4 0 1 12 10 27 l18 28 -21 -19 c-18 -15 -24 -17 -37
-6 -12 10 -13 16 -4 27 10 11 8 12 -7 6 -22 -8 -39 -24 -40 -38 0 -5 -6 -25
-13 -43 -11 -26 -16 -30 -27 -21 -20 17 -19 -8 2 -28 13 -14 17 -14 25 -2 9
14 12 28 10 42 0 4 5 7 12 7 9 0 9 2 -1 8 -9 6 -6 12 13 20 19 9 25 9 25 0 0
-6 3 -9 6 -6 3 4 14 -2 25 -13 20 -20 24 -30 12 -28 -26 4 -35 -2 -24 -15 6
-7 8 -22 4 -32 -6 -16 -4 -17 9 -6 13 10 15 9 10 -13 -5 -31 -18 -32 -26 -2
-5 18 -8 20 -16 7 -8 -13 -10 -12 -10 3 0 9 7 17 16 17 13 0 14 3 5 13 -17 22
-56 14 -54 -11 2 -16 -2 -19 -20 -16 -21 4 -21 4 -2 -5 29 -14 33 -13 37 7 3
11 6 8 10 -12 5 -27 4 -28 -24 -22 -26 5 -29 3 -23 -12 4 -9 10 -25 12 -35 6
-18 28 -23 37 -8 3 5 -3 11 -14 14 -11 3 -20 10 -20 17 0 7 8 9 19 5 12 -4 23
0 28 10 8 14 11 13 28 -5 19 -21 45 -27 45 -10 0 5 7 7 15 4 8 -4 15 -1 15 5
0 6 -6 11 -12 11 -9 0 -8 3 2 10 10 6 17 5 20 -4 4 -10 10 -7 23 10 10 13 13
24 7 24 -5 0 -10 -4 -10 -10 0 -5 -7 -7 -15 -3 -9 3 -24 -2 -34 -11 -14 -13
-21 -14 -26 -6 -4 7 -4 15 1 19 16 11 14 31 -2 31 -13 0 -14 3 -5 14 6 7 12
25 13 39 1 14 6 23 10 21 4 -3 4 -12 1 -21 -4 -11 -3 -14 5 -9 7 4 12 3 12 -2
0 -6 -7 -12 -15 -16 -13 -4 -13 -9 -4 -25 13 -20 40 -22 47 -3 2 7 -2 10 -11
6 -8 -3 -18 0 -23 7 -4 8 -3 10 5 5 6 -4 18 -3 25 3 10 9 15 7 19 -9 3 -13 10
-18 21 -14 9 3 16 2 16 -3 0 -5 7 -10 15 -10 8 0 15 7 15 15 0 8 -6 12 -13 9
-6 -2 -18 2 -25 9 -11 12 -7 13 20 10 18 -2 39 1 45 6 9 7 15 5 19 -6 3 -9 10
-16 16 -16 5 0 7 4 4 9 -4 5 2 8 11 7 9 -2 19 -9 21 -16 3 -7 0 -10 -6 -6 -6
3 -13 2 -16 -3 -11 -17 8 -20 29 -5 10 8 15 14 10 14 -4 0 0 10 11 21 19 22
19 22 -3 10 -13 -6 -23 -8 -23 -2 0 11 25 21 52 21 16 0 18 -3 10 -13 -13 -15
-12 -57 1 -57 5 0 6 8 2 19 -7 22 12 39 42 37 32 -3 35 -10 13 -24 -12 -7 -20
-8 -20 -2 0 5 -4 10 -8 10 -5 0 -9 -7 -9 -15 0 -8 7 -15 14 -15 8 0 12 -4 8
-9 -3 -5 -1 -12 4 -15 4 -3 8 4 7 17 -1 13 4 21 12 20 6 -2 12 2 12 8 0 6 6 9
12 7 7 -3 21 6 31 19 14 17 22 21 31 13 7 -5 15 -8 18 -5 2 3 23 -11 45 -30
30 -26 40 -40 36 -55 -3 -11 -9 -20 -14 -20 -5 0 -9 -10 -9 -22 0 -21 0 -21
15 -2 14 19 14 19 15 -3 0 -12 -6 -24 -12 -26 -10 -4 -10 -6 0 -6 6 -1 12 -6
12 -12 0 -6 -7 -9 -15 -5 -8 3 -15 1 -15 -4 0 -15 36 -12 49 3 6 8 8 16 5 20
-3 3 -3 15 1 26 5 16 9 18 19 8 11 -10 10 -14 -3 -25 -15 -12 -14 -13 2 -8 15
5 16 2 7 -14 -8 -16 -8 -20 4 -20 19 0 26 88 8 107 -11 10 -11 13 -1 13 10 0
10 3 1 12 -8 8 -15 8 -26 -1 -13 -11 -20 -7 -45 20 -17 18 -29 34 -27 36 8 8
36 -11 36 -25 0 -13 2 -13 18 1 10 10 23 17 29 17 6 0 14 6 16 13 4 8 6 6 6
-4 1 -9 -9 -21 -21 -28 -22 -11 -22 -11 4 -6 41 8 48 -16 34 -122 -3 -23 0
-33 9 -33 13 0 17 21 15 75 0 11 -2 157 -5 324 -2 167 -6 305 -9 308 -2 3 -12
-9 -20 -26 -12 -22 -13 -32 -4 -37 6 -4 8 -3 5 2 -3 6 -2 16 4 24 6 11 9 8 9
-13 0 -15 -7 -30 -15 -33 -8 -4 -12 -10 -9 -15 3 -5 9 -7 14 -4 5 3 8 -3 7
-14 0 -10 -6 -17 -12 -15 -5 2 -10 -10 -10 -28 0 -18 -4 -44 -9 -57 -7 -20 -6
-23 8 -18 14 6 17 0 16 -31 0 -54 2 -72 11 -72 5 0 6 -7 2 -16 -5 -13 -7 -13
-14 -2 -10 15 -4 -55 6 -72 10 -15 -28 0 -42 18 -15 19 -17 46 -3 37 6 -4 8
-11 5 -16 -7 -10 8 -12 18 -2 4 3 -2 12 -12 19 -13 10 -20 29 -23 63 -3 44 -1
48 12 36 14 -12 16 -12 16 5 0 12 -7 20 -16 20 -9 0 -40 25 -70 55 -30 30 -70
60 -89 66 -33 11 -45 13 -109 17 -13 1 -20 6 -17 12 4 6 16 8 28 4 12 -4 52
-6 89 -5 37 1 86 -3 110 -9 31 -9 43 -9 46 -1 2 6 9 8 15 4 7 -3 8 -2 4 2 -10
12 -32 16 -97 19 -92 4 -103 21 -35 55 25 12 45 27 45 32 0 13 -17 11 -26 -2
-4 -8 -9 -7 -15 2 -6 10 -9 8 -9 -7 0 -12 -7 -24 -15 -28 -20 -7 -19 9 2 34
21 24 68 27 77 4 8 -21 8 -26 -3 -20 -5 3 -12 -1 -15 -10 -3 -8 -2 -12 4 -9 6
3 10 0 10 -7 1 -7 8 0 16 16 12 22 18 25 25 15 6 -11 9 -9 15 6 4 11 9 24 12
29 3 5 0 6 -6 2 -7 -4 -12 -3 -12 3 0 5 -23 8 -54 6 -47 -3 -55 -1 -64 18 -10
21 -11 21 -17 -10 -4 -18 -14 -33 -21 -33 -8 0 -14 -6 -14 -14 0 -8 -7 -17
-16 -20 -8 -3 -13 -9 -10 -14 2 -4 -5 -19 -16 -32 -12 -15 -18 -18 -14 -8 2 9
0 19 -7 22 -7 3 -4 4 5 3 9 -1 17 1 17 6 3 27 0 37 -9 32 -5 -3 -10 -2 -10 3
0 6 7 13 16 16 8 3 12 2 9 -3 -3 -5 -1 -12 4 -15 5 -3 11 1 15 9 3 8 1 17 -4
20 -16 10 -12 35 5 35 8 0 15 -5 15 -11 0 -5 -4 -7 -10 -4 -6 3 -7 -1 -4 -9 7
-19 24 -11 24 10 0 8 8 24 19 35 19 21 26 69 9 69 -6 0 -7 -11 -4 -25 4 -14 2
-25 -3 -25 -5 0 -17 -7 -25 -16 -9 -8 -16 -11 -16 -5 0 5 7 16 15 24 11 12 12
17 2 20 -8 4 -8 6 0 6 6 1 9 10 6 21 -5 18 -22 26 -48 20 -5 -1 -7 2 -3 6 4 4
3 13 -3 21 -7 8 -8 13 -1 13 5 0 12 -7 16 -15 3 -8 11 -15 18 -15 9 0 9 3 -2
10 -13 8 -13 11 -1 22 10 10 12 10 7 1 -4 -7 -2 -13 3 -13 6 0 11 -6 11 -14 0
-14 18 -25 57 -32 15 -3 24 2 28 16 3 11 10 20 15 20 11 0 7 -50 -4 -69 -5 -7
4 -13 23 -17 36 -7 42 -23 9 -21 -25 1 -50 26 -44 42 2 6 -5 11 -16 11 -13 0
-18 -6 -16 -21 2 -11 9 -19 16 -18 6 2 12 -6 12 -17 0 -17 4 -18 24 -10 17 6
26 5 30 -3 3 -9 7 -9 14 2 7 9 12 10 16 2 4 -6 15 -11 26 -11 10 0 20 -7 24
-15 3 -8 1 -15 -5 -15 -6 0 -7 -5 -3 -12 5 -8 2 -9 -9 -5 -10 3 -17 2 -17 -3
0 -15 26 -12 40 5 16 20 53 -2 46 -28 -4 -17 -3 -17 19 -3 44 29 54 13 38 -56
-8 -33 -11 -63 -8 -66 3 -3 5 2 5 11 0 10 7 17 15 17 8 0 15 -8 15 -17 0 -14
-2 -15 -9 -4 -7 11 -10 9 -16 -8 -3 -12 -11 -18 -17 -15 -7 5 -9 -2 -4 -20 4
-16 3 -25 -2 -22 -14 8 -48 -112 -35 -125 7 -7 9 -3 6 14 -3 14 1 28 8 32 9 6
11 2 6 -15 -3 -13 -2 -19 3 -14 7 8 13 38 22 116 1 9 6 14 10 12 4 -3 8 0 8 7
0 7 3 10 6 7 3 -3 -1 -21 -8 -39 -7 -19 -13 -53 -13 -76 0 -22 -4 -39 -9 -36
-5 4 -6 -7 -2 -23 4 -19 3 -24 -2 -15 -11 16 -27 -3 -17 -19 4 -6 1 -9 -7 -8
-10 2 -13 -23 -13 -122 1 -150 9 -200 33 -200 14 0 14 2 3 9 -9 6 -11 18 -7
36 5 20 4 25 -6 19 -10 -5 -11 -4 0 7 6 7 12 20 12 28 0 13 -2 13 -9 2 -6 -9
-10 -1 -13 27 -2 30 1 43 14 51 12 7 18 8 18 1 0 -5 -5 -10 -11 -10 -5 0 -7
-5 -3 -12 9 -14 14 -50 14 -96 -1 -19 3 -31 9 -28 5 3 7 -3 4 -14 -4 -14 0
-20 12 -20 11 0 15 6 11 18 -11 38 -26 178 -26 245 0 75 20 216 43 307 9 34
21 57 34 64 12 6 31 23 43 39 26 33 46 36 29 5 -11 -21 -11 -22 4 -10 18 15
41 7 31 -11 -4 -7 -4 -9 1 -5 4 4 14 0 23 -8 13 -14 13 -17 1 -25 -11 -7 -11
-9 -1 -9 7 0 11 -4 7 -9 -3 -5 0 -13 6 -16 5 -4 8 -13 5 -21 -3 -8 -1 -14 5
-14 6 0 17 -7 26 -15 15 -16 38 -11 27 6 -3 5 -9 7 -14 4 -4 -3 -13 2 -20 10
-10 12 -8 13 9 10 12 -2 21 0 21 6 0 5 5 9 11 9 11 0 39 25 39 35 0 3 -4 4 -9
1 -5 -3 -11 1 -14 8 -3 8 -1 17 6 20 7 2 5 5 -5 5 -24 1 -28 24 -5 36 11 5 22
21 24 35 5 40 11 50 30 50 14 0 15 -2 4 -9 -7 -5 -10 -14 -7 -20 4 -6 3 -11
-3 -11 -5 0 -8 -8 -6 -17 3 -19 21 -19 42 -1 18 14 16 29 -2 22 -8 -4 -15 -1
-15 5 0 6 12 11 26 11 14 0 23 -4 19 -10 -3 -6 -1 -10 4 -10 6 0 11 7 11 16 0
13 5 12 30 -6 17 -12 30 -28 30 -36 0 -8 5 -12 10 -9 6 4 8 9 6 13 -2 4 8 8
22 8 15 1 21 -1 14 -3 -10 -4 -10 -9 3 -23 9 -10 15 -24 13 -31 -2 -8 3 -13
10 -12 6 2 12 -2 12 -7 0 -6 5 -10 11 -10 5 0 7 6 3 13 -5 8 -2 7 10 -2 9 -8
15 -19 13 -25 -5 -13 18 -38 27 -29 3 4 6 1 6 -6 0 -7 5 -9 10 -6 6 4 1 14
-12 25 -13 10 -20 21 -17 24 10 10 66 -18 62 -30 -3 -8 16 -11 58 -10 61 1 94
20 44 24 -15 1 -24 -2 -21 -6 2 -4 -4 -8 -13 -9 -10 -1 -23 8 -29 20 -8 17
-11 18 -11 5 -1 -9 -5 -19 -10 -22 -5 -4 -8 5 -7 19 2 13 0 22 -5 20 -4 -3
-10 -1 -14 5 -4 6 -10 8 -15 5 -4 -3 -6 4 -3 14 5 19 2 20 -36 12 -2 -1 2 -8
9 -16 10 -12 9 -15 -4 -15 -14 0 -16 7 -12 31 6 43 -12 71 -37 58 -17 -10 -17
-12 -2 -35 13 -20 13 -24 1 -24 -20 0 -26 46 -7 64 14 15 13 16 -7 16 -13 0
-20 -4 -17 -10 3 -5 1 -10 -4 -10 -6 0 -11 5 -11 11 0 7 -12 10 -33 6 -39 -6
-81 21 -66 44 7 11 13 10 28 -10 12 -16 20 -20 25 -12 4 6 1 14 -7 17 -8 3
-13 13 -10 23 6 23 92 18 111 -7 12 -16 15 -16 42 0 30 17 30 17 45 -12 9 -17
13 -30 9 -30 -4 0 12 -18 34 -39 31 -30 40 -47 40 -70 -1 -17 -5 -28 -10 -25
-4 3 -8 0 -8 -5 0 -18 18 -13 41 12 12 12 18 15 14 7 -6 -12 -5 -13 6 -3 10
10 10 16 1 25 -9 9 -8 16 6 32 9 11 11 16 5 12 -8 -4 -13 -2 -13 7 0 18 -38
17 -49 -2 -7 -10 -10 -10 -16 -1 -4 7 -2 16 5 20 7 5 14 21 16 37 1 15 0 22
-3 16 -6 -16 -23 -17 -23 -2 0 11 25 39 35 39 3 0 3 -5 -1 -12 -4 -7 -3 -8 4
-4 7 4 12 2 12 -3 0 -6 7 -11 15 -11 22 0 18 21 -5 27 -21 6 -28 23 -9 23 5 0
7 5 4 10 -7 12 -26 14 -23 3 4 -12 -44 -63 -54 -57 -14 9 -9 -14 7 -30 19 -18
20 -33 2 -17 -8 6 -17 9 -20 6 -4 -3 -5 -2 -3 1 3 3 0 17 -5 31 -10 28 -1 53
12 32 4 -7 11 -10 16 -6 4 5 2 11 -4 15 -8 5 -9 13 -3 22 6 8 10 10 10 4 0
-21 31 -10 36 13 4 12 10 23 16 23 5 0 6 -5 3 -10 -13 -21 11 -8 28 15 18 25
18 25 -9 25 -23 0 -25 -2 -13 -17 13 -15 12 -15 -9 -4 -12 6 -27 9 -32 6 -19
-12 -21 17 -1 34 26 22 27 33 4 29 -20 -3 -44 -29 -37 -40 8 -12 -30 4 -38 16
-12 17 -9 26 7 26 8 0 15 -4 15 -10 0 -5 5 -10 11 -10 5 0 8 4 5 8 -3 5 6 19
19 30 14 12 25 27 25 32 0 6 10 15 23 20 20 8 19 9 -10 9 -41 1 -42 15 -3 38
17 9 30 21 30 26 0 4 -5 5 -12 1 -8 -5 -9 -2 -5 10 13 34 -6 38 -20 5 -11 -27
-16 -31 -23 -19 -5 8 -10 20 -10 25 0 6 5 3 10 -5 8 -13 10 -12 10 3 0 19 -15
23 -25 7 -4 -6 -16 -8 -27 -4 -17 5 -20 3 -14 -12 6 -15 5 -16 -5 -7 -10 10
-9 17 5 32 14 15 24 17 47 11 17 -5 31 -5 35 1 4 6 11 6 20 -2 8 -7 14 -7 14
-1 0 14 -26 23 -47 16 -17 -5 -17 -5 -1 9 10 8 14 18 10 23 -11 13 31 -18 51
-38 22 -22 37 -23 37 -3 0 19 16 20 23 1 3 -8 -4 -22 -15 -33 -12 -10 -18 -13
-15 -7 4 7 -2 14 -15 17 -27 8 -38 -1 -18 -13 8 -6 11 -10 5 -10 -5 0 -2 -5 8
-11 14 -8 24 -5 48 15 17 14 36 26 42 26 7 -1 2 -9 -11 -20 -13 -11 -21 -24
-17 -30 4 -6 14 -2 27 10 12 11 25 20 30 20 14 0 9 37 -7 50 -12 10 -15 10
-15 -2 0 -8 -7 -15 -15 -15 -11 0 -12 4 -5 11 15 15 12 46 -4 46 -8 0 -18 -4
-21 -10 -3 -6 1 -7 10 -4 11 5 14 2 9 -9 -9 -25 -43 0 -36 27 5 18 3 19 -11 8
-9 -8 -13 -20 -10 -28 3 -9 -1 -14 -13 -14 -16 0 -17 2 -4 10 11 7 11 10 2 10
-7 0 -10 6 -7 13 4 6 -1 3 -10 -8 -17 -20 -17 -20 -10 5 6 20 5 22 -5 13 -7
-6 -19 -9 -26 -6 -8 3 -14 -1 -14 -11 0 -8 -12 -21 -27 -29 -30 -14 -73 -12
-73 4 0 13 24 11 39 -3 11 -10 12 -10 7 -1 -11 21 13 56 35 50 10 -3 19 -2 19
3 0 4 13 10 29 12 17 2 28 1 25 -4 -3 -4 1 -8 9 -8 8 0 18 7 21 16 8 22 8 26
-4 19 -17 -11 -31 5 -17 19 6 8 15 12 20 9 4 -2 7 1 7 6 0 6 -7 11 -15 11 -8
0 -15 7 -15 15 0 8 -4 15 -10 15 -17 0 -11 28 8 40 16 11 16 11 -2 6 -13 -4
-17 -2 -13 7 3 8 1 20 -4 28 -8 12 -10 12 -19 -1 -6 -10 -6 -16 0 -18 6 -2 8
-8 4 -13 -3 -5 0 -9 6 -9 6 0 8 -5 4 -11 -3 -6 -15 3 -27 23 -13 21 -22 28
-25 19 -2 -7 0 -16 5 -20 6 -3 13 -16 17 -28 6 -19 4 -23 -13 -23 -12 0 -24 0
-28 -1 -4 0 -9 5 -12 12 -2 7 1 9 8 5 7 -4 11 0 11 12 0 15 -5 18 -26 14 -21
-4 -25 -2 -18 9 5 8 7 22 6 32 -2 9 2 17 7 17 6 0 11 7 11 15 0 8 5 15 12 15
6 0 3 7 -8 15 -12 10 -14 14 -4 13 8 -2 15 2 15 7 2 10 14 43 22 58 2 4 -1 7
-6 7 -6 0 -11 -6 -11 -14 0 -8 -5 -18 -12 -22 -8 -5 -9 -2 -5 10 4 10 3 15 -3
11 -6 -3 -10 -1 -10 4 0 15 -28 14 -33 -1 -2 -7 -3 -6 -2 3 3 20 -38 45 -55
34 -9 -5 -10 -1 -5 14 7 24 -7 28 -24 7 -9 -11 -8 -18 5 -30 9 -10 13 -20 9
-24 -4 -4 -10 -1 -12 6 -3 6 -9 9 -15 6 -5 -3 -9 0 -7 7 5 40 -1 51 -26 47
-20 -4 -23 -3 -14 8 8 9 16 11 29 4 17 -9 30 -4 30 12 0 5 -9 6 -20 3 -21 -7
-25 1 -11 24 10 16 -8 53 -21 45 -7 -5 -12 10 -9 29 0 4 -4 7 -9 7 -11 0 -8
-30 9 -72 7 -20 7 -29 -3 -37 -13 -11 -26 -5 -26 11 0 5 4 7 10 3 5 -3 5 7 -1
25 -13 37 -24 40 -15 4 6 -21 4 -25 -8 -21 -25 10 -26 -5 -1 -25 28 -22 32
-40 11 -58 -8 -6 -12 -19 -9 -27 5 -12 2 -15 -8 -11 -8 3 -21 -2 -29 -10 -13
-14 -12 -15 3 -9 11 4 17 2 17 -7 0 -8 -6 -16 -12 -19 -7 -2 -10 -8 -6 -12 9
-10 36 17 31 32 -2 6 1 14 6 18 6 3 11 -1 11 -10 0 -9 4 -14 9 -11 4 3 16 -3
26 -14 17 -19 11 -26 -18 -21 -5 1 -5 -3 -2 -9 5 -8 -5 -10 -31 -8 -35 3 -39
6 -55 50 -16 45 -16 46 2 43 11 -2 19 2 19 10 0 21 -29 45 -48 39 -15 -5 -15
-4 1 6 19 12 14 30 -9 30 -8 0 -14 -10 -14 -24 0 -14 -4 -27 -10 -31 -11 -7
-2 -35 12 -35 5 0 7 8 3 19 -4 15 -1 18 21 15 32 -3 45 -14 17 -14 -14 0 -23
-9 -28 -27 -5 -20 -9 -23 -15 -13 -15 24 -43 -8 -36 -42 6 -31 -8 -38 -22 -12
-6 11 -12 13 -16 6 -7 -11 -24 -8 -62 10 -15 7 -20 16 -17 32 5 21 5 21 -11 1
-13 -17 -17 -18 -26 -5 -5 8 -10 23 -10 33 0 11 -5 16 -12 12 -7 -4 -3 2 10
13 25 23 29 34 7 26 -8 -4 -15 -1 -15 4 0 6 -8 9 -19 7 -14 -2 -18 3 -18 21 0
28 5 30 21 8 6 -8 18 -16 26 -18 36 -6 60 -18 54 -28 -4 -6 1 -8 14 -4 16 5
20 3 18 -11 -2 -9 -9 -19 -16 -21 -8 -3 -10 0 -5 8 5 8 3 11 -5 8 -8 -2 -16
-10 -18 -16 -6 -18 76 -12 83 6 3 9 0 12 -9 9 -10 -4 -12 0 -9 14 6 21 23 36
23 20 0 -17 17 -13 24 5 3 9 2 23 -4 32 -9 16 -9 16 -10 1 0 -9 -10 -19 -22
-23 -34 -9 -38 -8 -38 10 0 14 -3 14 -15 4 -12 -10 -15 -10 -15 1 0 12 -2 12
-9 0 -6 -9 -11 -10 -15 -3 -4 6 -13 9 -20 6 -17 -6 -41 22 -26 31 6 3 8 10 5
15 -3 4 9 13 25 19 18 6 30 17 30 28 0 14 -2 15 -9 4 -7 -11 -9 -11 -14 0 -4
9 -6 8 -6 -5 -1 -12 -6 -16 -17 -12 -11 4 -19 -3 -27 -24 -6 -16 -15 -30 -19
-30 -4 0 -5 6 -2 13 3 8 -2 20 -11 27 -15 12 -15 10 -9 -16 4 -16 8 -31 10
-33 2 -2 -1 -10 -7 -18 -9 -10 -8 -13 1 -13 8 0 10 -7 5 -22 -4 -13 -7 -31 -6
-42 0 -17 -2 -17 -23 3 -26 25 -38 19 -26 -14 5 -13 6 -25 3 -28 -3 -3 -2 -11
2 -17 5 -8 11 -7 22 2 13 10 14 9 12 -7 -2 -11 -1 -25 3 -30 4 -6 3 -17 -1
-24 -7 -10 -13 -11 -30 -2 -12 7 -19 16 -16 20 2 5 -3 15 -12 22 -15 12 -16
12 -11 -2 5 -13 0 -18 -22 -21 -22 -3 -27 -1 -20 8 7 8 6 13 -5 18 -19 7 -20
36 -1 36 7 0 16 -9 19 -21 5 -17 8 -18 24 -9 10 7 19 22 19 35 2 21 -1 23 -22
15 -16 -7 -24 -6 -24 1 0 8 -4 8 -14 0 -16 -13 -57 -23 -53 -13 1 4 -2 7 -8 7
-5 0 -8 -6 -7 -13 4 -18 -27 -41 -56 -42 -26 0 -42 28 -22 40 10 6 9 9 -1 13
-11 4 -10 9 5 21 20 16 20 16 0 16 -11 0 -25 -5 -31 -11 -13 -13 -56 -2 -48
12 4 5 11 9 16 9 6 0 7 -4 4 -10 -3 -5 1 -10 10 -10 12 0 15 6 10 21 -6 18 -4
20 17 14 12 -4 25 -7 28 -7 20 0 30 3 30 11 0 5 -9 7 -20 4 -11 -3 -20 0 -20
6 0 18 38 13 49 -6 10 -17 10 -17 11 0 0 9 7 17 15 17 22 0 18 -19 -7 -41 -13
-10 -18 -18 -11 -19 6 0 13 6 16 13 3 8 10 6 21 -8 8 -11 16 -15 16 -8 0 6 -5
15 -10 18 -16 10 7 45 25 39 8 -4 15 -1 15 5 0 6 -7 11 -15 11 -8 0 -15 6 -16
13 0 6 -5 3 -10 -8 -8 -18 -9 -17 -5 5 5 24 4 24 -9 6 -8 -11 -15 -16 -15 -10
0 5 -5 2 -11 -6 -9 -12 -10 -11 -4 5 10 31 13 105 3 105 -4 0 -8 -7 -8 -15 0
-8 -4 -15 -10 -15 -5 0 -10 7 -10 15 0 8 -5 15 -10 15 -7 0 -7 -6 0 -20z m687
-62 c-3 -8 -6 -5 -6 6 -1 11 2 17 5 13 3 -3 4 -12 1 -19z m-411 -102 c-5 -20
-3 -23 13 -19 25 6 36 -25 16 -47 -21 -23 -19 -37 3 -18 11 11 24 13 37 8 20
-9 6 -15 -24 -11 -7 2 -10 -2 -7 -7 7 -12 -37 -10 -46 3 -4 5 -2 13 5 17 9 6
8 10 -3 18 -13 8 -13 10 2 10 9 0 18 -5 20 -12 3 -9 6 -9 12 0 4 8 -2 16 -18
22 -19 7 -25 16 -24 35 1 14 6 25 11 25 5 0 6 -11 3 -24z m385 0 c-9 -11 -9
-16 0 -22 7 -4 10 -3 6 2 -6 11 20 50 29 41 3 -3 -1 -16 -9 -28 -9 -11 -13
-29 -10 -38 2 -9 -7 -2 -21 14 -20 23 -23 31 -11 33 8 2 15 8 15 14 0 6 3 8 6
5 4 -4 1 -13 -5 -21z m139 -10 c0 -6 -7 -19 -15 -30 -13 -18 -14 -17 -20 7 -4
14 -4 30 -1 36 8 13 36 3 36 -13z m-890 -11 c9 -11 16 -13 24 -5 16 16 26 12
26 -12 0 -12 9 -32 21 -44 13 -14 17 -24 10 -29 -6 -3 -11 -1 -11 4 0 6 -4 11
-10 11 -19 0 -10 -28 10 -33 11 -3 18 -1 14 4 -3 5 -1 9 4 9 10 0 29 -39 27
-55 -1 -5 -5 -25 -9 -43 -6 -27 -12 -33 -27 -29 -10 3 -19 1 -19 -4 0 -5 -9
-9 -21 -9 -16 0 -20 -4 -14 -17 5 -15 4 -16 -6 -5 -7 6 -20 12 -28 11 -10 0
-11 -2 -4 -5 7 -3 9 -13 6 -22 -3 -13 -2 -14 4 -4 6 7 14 12 19 11 22 -4 35 2
28 13 -4 6 -3 8 4 4 6 -3 14 -1 18 5 4 8 9 7 15 -2 7 -11 11 -10 23 6 9 11 16
29 16 40 1 18 2 18 12 -3 7 -13 17 -21 25 -18 8 3 16 -1 19 -8 3 -8 14 -12 25
-9 13 4 19 0 19 -11 0 -9 6 -17 13 -18 6 0 17 -2 22 -2 6 -1 16 -5 23 -9 17
-11 32 0 25 18 -3 8 1 15 8 15 7 0 9 -3 6 -7 -4 -3 -3 -11 2 -17 17 -23 20
-45 6 -39 -8 3 -12 9 -9 14 3 5 -2 6 -11 3 -14 -6 -14 -9 -1 -23 7 -9 16 -25
18 -36 5 -18 6 -18 16 5 8 19 11 21 11 7 1 -11 -9 -27 -21 -38 l-23 -18 25 -2
c16 -1 19 -3 8 -6 -9 -2 -26 1 -37 7 -16 8 -21 8 -21 -2 0 -8 -5 -5 -11 5 -7
11 -17 16 -28 12 -11 -3 -24 2 -32 11 -12 15 -11 16 8 10 16 -5 21 -3 19 9 -1
8 -8 21 -14 27 -7 7 -12 18 -12 25 0 10 5 10 24 2 17 -8 22 -17 18 -32 -3 -12
2 -25 13 -33 16 -12 20 -11 30 9 15 28 7 44 -9 21 -10 -13 -15 -14 -21 -4 -5
8 -4 11 2 7 6 -4 11 4 11 19 0 18 -5 24 -15 20 -19 -8 -53 11 -53 29 0 9 -6
12 -15 9 -8 -4 -12 -11 -8 -18 15 -23 11 -36 -10 -32 -12 3 -25 5 -29 5 -5 1
-8 5 -8 10 0 4 12 7 28 5 15 -2 19 -1 9 2 -10 3 -16 11 -14 18 6 15 -30 40
-37 27 -3 -5 1 -12 10 -15 8 -3 12 -11 8 -17 -5 -8 -9 -8 -14 1 -4 7 -15 10
-25 7 -9 -4 -14 -11 -10 -16 3 -6 12 -8 20 -4 24 9 17 -15 -7 -28 -13 -7 -24
-12 -25 -11 -2 1 -2 -1 -1 -5 1 -9 40 -4 48 6 8 11 30 12 30 1 0 -5 -4 -10 -9
-10 -6 0 -9 -18 -8 -40 2 -26 -1 -36 -7 -30 -16 16 -26 12 -20 -7 5 -15 4 -15
-4 -4 -9 12 -13 10 -23 -12 -9 -20 -15 -24 -25 -16 -7 6 -10 17 -7 26 4 11 8
11 13 3 5 -9 9 -9 14 -1 4 6 2 11 -3 11 -6 0 -11 5 -11 11 0 6 9 8 20 4 11 -4
20 -2 20 4 0 6 -5 11 -11 11 -5 0 -8 4 -4 10 3 5 12 7 20 3 8 -3 15 0 15 6 0
13 -20 14 -40 1 -11 -7 -17 -5 -22 8 -5 13 -7 10 -9 -10 -1 -16 -3 -32 -4 -38
-1 -5 -3 -12 -4 -15 0 -3 -16 4 -33 15 -34 21 -63 27 -54 11 4 -5 2 -20 -3
-33 -8 -23 -7 -24 20 -20 16 2 29 9 29 14 0 5 5 6 11 3 7 -5 5 -13 -5 -24 -9
-10 -13 -21 -9 -24 3 -4 2 -7 -4 -7 -5 0 -13 3 -17 7 -4 4 -19 9 -34 10 -21 3
-24 1 -12 -7 8 -5 11 -10 5 -10 -5 0 -3 -6 3 -12 10 -10 14 -10 20 0 6 9 19 4
50 -19 23 -17 47 -29 54 -27 6 2 -5 14 -25 27 -42 26 -45 31 -16 31 11 0 18
-4 14 -9 -7 -13 9 -22 50 -27 21 -2 35 0 35 6 0 6 -6 10 -14 8 -8 -2 -16 1
-18 7 -2 5 10 11 25 12 19 1 27 -2 24 -10 -3 -8 5 -14 21 -15 19 -2 23 1 15 9
-6 6 -9 18 -6 27 4 10 2 13 -5 8 -7 -4 -12 -2 -12 6 0 9 -3 9 -10 -2 -5 -8
-10 -10 -10 -4 0 6 8 18 17 25 14 12 16 12 8 0 -5 -9 -4 -12 2 -8 18 11 35
-21 30 -57 -3 -20 1 -43 8 -53 11 -15 10 -22 -1 -38 -11 -15 -17 -16 -26 -7
-9 9 -9 12 0 12 7 0 12 5 12 11 0 5 -4 7 -10 4 -5 -3 -10 1 -10 9 0 9 5 16 12
16 9 0 9 3 1 11 -9 9 -16 8 -28 -5 -9 -9 -13 -16 -8 -16 4 0 9 -11 9 -25 2
-20 -1 -23 -11 -15 -10 9 -16 6 -25 -9 -6 -12 -7 -21 -1 -21 5 0 12 6 15 13 3
6 3 2 0 -10 -6 -27 -1 -28 31 -7 29 19 33 12 7 -14 -17 -17 -52 -19 -52 -2 0
4 -8 7 -17 5 -10 -1 -17 -8 -15 -15 1 -6 -2 -9 -8 -5 -5 3 -10 1 -10 -5 0 -6
-8 -10 -17 -8 -21 4 -24 39 -4 46 9 3 11 0 6 -8 -6 -9 -3 -9 14 -1 12 7 25 9
30 6 5 -3 7 3 4 13 -2 10 3 24 11 31 20 16 20 35 3 50 -11 8 -18 6 -31 -8 -10
-11 -15 -24 -12 -29 3 -6 -2 -8 -14 -5 -11 3 -20 14 -20 24 0 10 -4 21 -10 24
-6 4 -7 -1 -3 -12 4 -13 1 -12 -15 6 -12 13 -19 28 -16 32 3 5 0 9 -5 9 -6 0
-11 -6 -11 -13 0 -19 -47 -20 -54 -1 -3 9 -3 20 0 26 3 5 -1 8 -9 6 -9 -2 -16
0 -16 5 -2 22 0 27 14 27 9 0 15 9 15 23 0 18 2 19 10 7 7 -11 10 -7 10 18 0
17 4 32 10 32 5 0 6 8 3 18 -6 15 -5 15 10 3 10 -8 17 -9 17 -3 0 6 3 19 7 29
6 15 4 16 -9 5 -18 -14 -68 -12 -68 3 0 5 -4 3 -10 -5 -5 -8 -13 -11 -17 -6
-4 4 0 14 11 21 11 8 16 21 13 30 -4 8 -1 15 4 15 7 0 9 -11 7 -25 -7 -35 9
-31 32 8 21 34 26 52 11 43 -12 -8 -22 20 -14 40 4 10 -1 17 -16 21 -11 3 -18
9 -15 14 3 5 10 7 15 3 6 -3 21 -7 35 -9 24 -2 28 7 27 53 -1 6 3 12 8 12 5 0
9 -7 9 -15 0 -8 5 -15 10 -15 6 0 10 -5 10 -11 0 -8 -5 -8 -15 1 -10 9 -15 9
-15 1 0 -12 1 -12 38 -16 l23 -2 -23 24 c-24 26 -24 31 1 50 14 11 14 12 -1
13 -10 0 -18 -5 -18 -11 0 -6 -8 -9 -17 -7 -10 2 -18 8 -18 15 0 6 -3 14 -7
18 -4 4 -4 14 -1 23 4 10 2 13 -5 8 -7 -4 -12 -1 -12 8 0 20 14 20 30 1z m810
-14 c0 -17 -18 -21 -24 -6 -3 9 0 15 9 15 8 0 15 -4 15 -9z m26 -27 c-9 -6
-11 -15 -7 -23 6 -10 10 -9 14 3 4 9 13 16 21 16 8 0 17 6 19 13 3 7 6 5 6 -5
1 -10 -9 -23 -21 -29 l-23 -12 23 -10 c12 -6 21 -15 19 -21 -6 -17 -32 -13
-32 4 0 8 -7 15 -15 15 -8 0 -18 8 -22 17 -9 21 14 72 24 55 4 -7 1 -17 -6
-23z m-186 -5 c0 -20 -15 -26 -25 -9 -4 7 -12 7 -25 0 -15 -8 -19 -7 -17 9 1
13 7 18 19 16 10 -2 20 1 23 6 9 14 25 0 25 -22z m284 -1 c-4 -18 -7 -41 -6
-50 0 -10 -5 -18 -13 -18 -11 0 -11 6 -2 32 10 25 9 32 -1 36 -10 3 -10 7 -1
18 20 24 31 16 23 -18z m-769 13 c-3 -5 4 -11 16 -13 17 -2 23 -11 26 -38 2
-19 10 -40 18 -46 8 -6 15 -17 15 -25 0 -11 -2 -11 -10 1 -6 10 -10 11 -10 3
0 -7 -4 -13 -10 -13 -5 0 -6 8 -3 18 6 15 5 15 -10 3 -22 -17 -21 -23 3 -49
27 -29 43 -28 35 1 -7 20 -6 21 9 6 18 -17 12 -49 -9 -49 -8 0 -21 8 -31 17
-9 9 -25 18 -35 18 -24 2 -23 1 -41 55 -9 25 -19 52 -22 61 -5 10 -2 16 8 16
8 0 13 -4 10 -9 -9 -14 13 -9 26 7 10 12 10 15 0 15 -10 0 -10 3 0 15 14 16
25 21 15 6z m640 -88 c-9 -8 -19 -13 -22 -9 -4 3 -1 12 5 18 17 17 15 28 -5
29 -11 0 -13 3 -5 6 6 2 12 12 13 21 0 10 7 2 15 -16 13 -29 13 -35 -1 -49z
m-181 40 c2 -11 11 -18 27 -18 13 -1 30 -4 37 -8 7 -5 12 -3 12 4 0 7 10 9 25
7 14 -3 25 -1 25 4 0 5 5 6 10 3 6 -3 10 -13 10 -20 0 -12 -6 -12 -26 -4 -29
11 -40 7 -29 -11 4 -6 13 -9 21 -6 8 3 14 1 14 -5 0 -6 4 -8 8 -5 4 2 14 1 21
-3 8 -6 21 -1 33 11 10 10 24 16 30 12 7 -5 2 -14 -15 -28 -21 -17 -24 -25
-15 -39 5 -10 7 -21 4 -24 -3 -4 -6 -1 -6 5 0 6 -7 9 -15 6 -26 -10 -16 -25
12 -19 16 2 30 -1 35 -8 5 -8 8 -6 8 6 0 29 63 18 70 -13 7 -31 49 -35 59 -7
7 20 8 20 15 1 4 -11 3 -20 -3 -22 -6 -2 -8 -8 -5 -14 3 -5 -2 -8 -11 -6 -10
2 -20 -2 -22 -9 -3 -9 7 -11 34 -8 48 6 23 -10 -29 -18 -43 -7 -48 3 -15 34
l22 21 -23 -7 c-32 -9 -57 12 -40 33 11 13 11 14 -1 8 -8 -5 -16 -3 -22 5 -4
7 -11 10 -16 6 -4 -4 -2 -16 3 -25 6 -9 8 -26 4 -37 -9 -23 -3 -38 11 -30 5 4
9 1 9 -4 0 -16 -16 -13 -30 4 -10 12 -16 13 -24 5 -8 -8 -6 -15 7 -24 17 -13
25 -32 8 -22 -5 3 -12 -1 -15 -9 -5 -13 -9 -12 -26 5 -24 24 -27 55 -5 46 8
-3 15 -1 15 4 0 6 -4 10 -9 10 -5 0 -17 3 -27 7 -14 5 -16 2 -12 -15 4 -12 2
-22 -4 -22 -6 0 -8 14 -6 32 4 26 3 28 -7 15 -7 -9 -15 -14 -19 -10 -4 4 -4 0
-1 -8 4 -11 -1 -18 -14 -22 -18 -4 -19 -1 -14 24 4 24 3 28 -10 23 -12 -4 -14
-1 -10 17 6 20 5 21 -9 8 -13 -12 -14 -17 -2 -34 16 -22 19 -55 4 -55 -5 0 -7
7 -4 15 4 8 2 15 -3 15 -6 0 -15 10 -21 23 -11 21 -12 21 -10 -8 1 -16 -3 -39
-10 -50 -6 -11 -12 -14 -12 -7 0 21 -2 26 -11 45 -9 16 4 26 14 10 2 -5 2 -1
0 7 -10 35 -5 60 12 60 8 0 15 -5 15 -11 0 -5 5 -7 11 -3 8 4 4 11 -10 18 -12
7 -18 16 -14 21 4 4 2 5 -6 0 -11 -6 -13 -3 -7 18 4 19 2 26 -11 29 -13 3 -11
5 7 9 21 4 25 1 26 -19 2 -30 13 -40 24 -23 6 11 9 8 12 -9 1 -13 9 -25 16
-28 8 -2 6 8 -7 30 -10 18 -24 32 -29 31 -6 -2 -9 4 -6 12 8 20 17 19 32 -5 9
-16 19 -19 39 -14 21 6 25 4 20 -9 -7 -18 14 -29 34 -16 12 7 12 10 0 21 -12
11 -13 10 -6 -2 5 -8 -3 -5 -17 8 -13 12 -28 19 -31 15 -4 -3 -7 -1 -7 6 0 7
-5 9 -10 6 -6 -4 -17 -2 -24 4 -17 14 -78 23 -71 10 4 -5 -1 -9 -10 -9 -9 0
-13 5 -10 10 3 6 -1 10 -9 10 -9 0 -16 -7 -16 -15 0 -8 5 -15 12 -15 6 0 3 -9
-7 -20 -20 -22 -7 -28 14 -7 11 10 12 8 6 -12 -4 -14 -3 -21 3 -17 5 3 10 -6
10 -19 0 -20 -3 -23 -14 -14 -10 8 -14 8 -14 0 0 -18 -14 -13 -29 10 -12 20
-11 21 10 16 21 -6 21 -5 5 11 -16 16 -19 15 -41 -11 -14 -15 -27 -27 -30 -27
-23 1 -24 -3 -6 -28 15 -22 17 -29 6 -29 -8 0 -12 4 -9 8 2 4 -3 14 -11 23
-13 12 -20 13 -35 4 -10 -7 -16 -16 -13 -20 6 -11 -15 -38 -30 -38 -5 0 -2 9
8 20 11 12 13 20 6 20 -7 0 -9 5 -5 11 3 6 1 15 -5 19 -9 5 -8 10 4 20 13 11
15 9 15 -9 0 -19 3 -20 20 -11 11 6 20 16 20 23 0 7 -4 6 -10 -3 -6 -10 -10
-11 -10 -2 0 6 -9 21 -19 31 -19 19 -20 19 -26 -9 -4 -20 -11 -27 -21 -23 -12
4 -15 -1 -12 -23 2 -21 8 -28 21 -26 21 4 23 -14 2 -22 -18 -7 -19 -35 -1 -58
15 -20 50 -25 43 -5 -2 6 -9 11 -15 10 -5 -1 -13 5 -17 15 -3 9 -3 13 1 9 4
-4 16 1 26 10 17 15 20 15 28 3 6 -8 10 -11 10 -7 0 11 40 -12 40 -24 0 -6 -7
-6 -20 1 -11 6 -20 7 -20 3 0 -4 -4 -1 -10 7 -11 18 -23 8 -14 -14 3 -9 11
-13 17 -9 5 3 7 1 3 -5 -3 -5 -3 -12 1 -15 5 -2 2 -2 -4 -1 -12 3 -17 -9 -14
-28 0 -5 -4 -8 -9 -8 -5 0 -10 7 -10 15 0 8 -4 15 -10 15 -15 0 -12 -41 4 -72
8 -15 10 -28 5 -30 -5 -2 -2 -16 6 -32 13 -25 13 -27 0 -22 -11 4 -15 -1 -15
-18 0 -15 -9 -27 -25 -34 -20 -9 -25 -9 -25 3 0 7 4 16 10 20 6 3 6 15 0 30
-8 20 -6 23 8 19 14 -5 15 -4 2 5 -13 9 -13 11 2 11 9 0 18 -6 21 -12 2 -7 2
1 -1 17 -2 17 -8 35 -13 40 -4 6 -12 35 -18 65 -5 30 -16 78 -23 105 -8 28
-11 61 -7 75 4 14 8 18 8 10 1 -13 2 -13 11 0 9 13 10 13 10 0 0 -13 1 -13 10
0 7 11 5 18 -5 26 -17 13 -20 52 -5 74 8 12 10 10 11 -10 1 -14 2 -33 1 -42
-1 -14 3 -16 22 -8 20 7 23 6 19 -9 -4 -15 1 -17 26 -13 37 5 47 18 31 37 -11
14 -7 19 13 16 4 0 7 4 7 9 0 5 -4 10 -9 10 -6 0 -13 -4 -16 -10 -9 -15 -35
-12 -35 5 0 8 6 12 14 9 7 -3 16 1 19 9 4 12 16 13 63 5 47 -7 60 -6 73 7 11
11 12 15 3 15 -7 0 -10 5 -7 11 9 13 16 6 19 -18z m286 13 c0 -3 -4 -8 -10
-11 -5 -3 -10 -1 -10 4 0 6 5 11 10 11 6 0 10 -2 10 -4z m-607 -49 c20 -16 23
-43 5 -50 -8 -3 -5 -6 5 -6 14 -1 18 -8 15 -28 -3 -24 -7 -28 -31 -26 -25 2
-27 0 -16 -13 6 -8 9 -17 5 -21 -3 -3 -6 -1 -6 6 0 8 -7 10 -22 5 -21 -6 -21
-6 -5 10 20 20 22 42 6 52 -7 4 1 14 20 27 l32 20 -23 11 c-16 9 -25 9 -30 2
-5 -7 -11 -7 -20 2 -9 9 -9 12 0 12 7 0 12 7 12 15 0 17 15 11 53 -18z m102
13 c-3 -6 1 -13 9 -16 9 -3 13 -10 10 -16 -3 -5 -12 -1 -20 9 -16 22 -18 33
-3 33 5 0 7 -5 4 -10z m-134 -53 c-13 -13 -26 -3 -16 12 3 6 11 8 17 5 6 -4 6
-10 -1 -17z m608 2 c-8 -4 -10 -12 -5 -16 4 -4 13 0 20 10 7 9 19 17 27 17 7
0 3 -7 -10 -16 -16 -12 -19 -19 -11 -24 9 -5 9 -9 1 -14 -6 -4 -11 -3 -11 3 0
7 -8 7 -26 1 -33 -13 -32 -13 -30 7 2 26 27 52 43 46 12 -5 12 -7 2 -14z
m-407 -3 c7 4 8 2 4 -4 -11 -18 -26 -14 -25 6 0 10 3 12 6 4 2 -6 10 -9 15 -6z
m-522 -15 c0 -3 -4 -12 -9 -19 -7 -11 -9 -11 -14 2 -4 9 -10 16 -14 15 -16 -3
-24 1 -19 10 6 9 56 3 56 -8z m992 -36 c4 -20 3 -23 -8 -14 -16 13 -19 39 -5
39 5 0 11 -11 13 -25z m-399 -66 c-16 -27 -16 -29 1 -48 15 -17 16 -23 6 -36
-10 -13 -9 -15 8 -15 29 0 53 -11 46 -21 -7 -12 7 -11 26 1 13 9 13 10 0 11
-8 0 -3 5 13 11 16 6 24 14 20 21 -3 7 -2 8 2 4 16 -14 15 -39 -1 -33 -9 3
-12 1 -9 -4 3 -6 2 -10 -2 -10 -5 0 -9 -9 -10 -20 -1 -11 2 -20 8 -20 8 0 13
15 10 33 -1 9 13 9 22 0 4 -3 -2 -17 -14 -29 -21 -23 -15 -25 28 -10 13 4 28
4 34 0 17 -10 -12 -25 -35 -18 -13 4 -16 3 -11 -6 5 -9 4 -11 -3 -6 -7 4 -12
1 -12 -6 0 -9 -2 -10 -8 -2 -4 7 -26 11 -52 9 -60 -4 -72 2 -58 25 7 10 16 16
20 14 5 -3 6 -10 3 -15 -8 -12 -1 -11 29 2 25 12 43 39 26 39 -6 0 -10 -4 -10
-10 0 -5 -11 -10 -25 -10 -22 0 -30 9 -26 33 0 4 -4 7 -10 7 -6 0 -8 -9 -4
-20 4 -11 2 -20 -4 -20 -6 0 -11 -7 -11 -15 0 -8 -5 -15 -11 -15 -5 0 -8 -4
-5 -9 9 -13 -19 -21 -35 -9 -11 8 -11 9 2 5 12 -4 17 1 17 19 0 28 -6 30 -23
7 -12 -15 -16 -16 -39 -4 -31 17 -28 22 13 23 17 1 31 5 31 10 0 5 8 4 19 -1
21 -12 31 -5 31 21 0 17 -5 19 -31 13 -22 -5 -29 -4 -25 4 4 6 15 11 26 11 10
0 20 7 24 15 3 8 1 15 -4 15 -6 0 -10 10 -10 23 0 12 -5 29 -10 37 -13 21 18
54 36 39 11 -9 11 -16 -3 -40z m510 31 c3 -11 1 -18 -4 -14 -18 11 -30 -7 -17
-24 11 -15 11 -15 -3 -5 -9 7 -19 10 -22 6 -4 -3 -7 -2 -7 3 0 6 6 16 12 22
10 10 10 15 -2 22 -12 8 -9 10 11 10 18 0 28 -6 32 -20z m-663 -11 c0 -5 -4
-9 -10 -9 -5 0 -10 7 -10 16 0 8 5 12 10 9 6 -3 10 -10 10 -16z m205 1 c3 -6
-6 -15 -20 -20 -15 -6 -23 -15 -19 -21 5 -8 8 -8 14 0 11 19 30 -11 25 -39 -5
-27 -12 -36 -22 -26 -4 4 -1 16 6 27 7 12 10 24 7 27 -3 3 -6 0 -6 -5 0 -15
-33 -9 -38 6 -2 7 6 24 19 36 29 28 26 27 34 15z m-130 -19 c3 -5 1 -12 -5
-16 -5 -3 -10 1 -10 9 0 18 6 21 15 7z m435 -1 c0 -5 -5 -10 -11 -10 -5 0 -7
5 -4 10 3 6 8 10 11 10 2 0 4 -4 4 -10z m15 -29 c-3 -11 1 -26 10 -35 15 -15
15 -16 -2 -16 -10 0 -26 -9 -36 -20 -16 -19 -16 -20 3 -20 26 0 36 -20 11 -21
-12 -1 -27 -2 -33 -3 -7 -1 -13 6 -14 14 -2 28 -4 31 -15 24 -8 -4 -7 -9 2
-15 11 -7 11 -9 1 -9 -7 0 -10 -4 -7 -10 3 -5 -1 -10 -10 -10 -12 0 -15 5 -11
18 6 16 5 16 -8 0 -7 -10 -17 -18 -21 -18 -4 0 -2 6 4 14 6 8 11 18 10 22 -3
21 2 26 15 15 9 -8 16 -8 20 -2 4 6 14 7 22 4 10 -4 17 2 21 16 3 11 12 21 20
21 8 0 12 4 9 9 -6 9 2 41 11 41 2 0 2 -9 -2 -19z m-685 -37 c0 -3 -5 -2 -10
1 -6 4 -18 1 -26 -6 -19 -15 -37 1 -28 24 5 15 9 15 35 1 16 -8 29 -17 29 -20z
m280 15 c16 -30 8 -31 -13 -3 -10 13 -13 24 -8 24 6 0 15 -9 21 -21z m217 -21
c-16 -25 -41 -25 -28 0 6 10 16 19 25 19 11 0 12 -4 3 -19z m28 2 c-3 -6 1
-13 9 -16 19 -7 20 -24 5 -58 -11 -24 -13 -24 -39 -11 -31 16 -46 42 -24 42 7
0 11 -4 9 -8 -3 -3 2 -12 10 -19 10 -9 15 -9 15 -1 0 6 3 10 8 10 20 -3 21 3
8 30 -9 16 -12 31 -9 35 10 10 15 7 8 -4z m-585 -40 c0 -11 -2 -20 -4 -20 -2
0 -6 9 -9 20 -3 11 -1 20 4 20 5 0 9 -9 9 -20z m580 -1 c0 -5 -4 -9 -10 -9 -5
0 -10 7 -10 16 0 8 5 12 10 9 6 -3 10 -10 10 -16z m-550 -14 c0 -14 -4 -25
-10 -25 -5 0 -9 11 -8 25 1 14 6 25 10 25 4 0 8 -11 8 -25z m-399 -37 c7 -12
6 -18 -1 -18 -6 0 -13 7 -16 15 -5 11 -9 12 -19 2 -11 -10 -10 -13 1 -20 8 -5
12 -12 10 -16 -3 -5 6 -6 19 -3 15 2 25 0 25 -7 0 -6 8 -12 18 -12 16 -1 16
-2 -1 -6 -9 -2 -15 -9 -12 -14 8 -12 -16 -11 -35 1 -13 8 -12 10 3 10 9 0 17
5 17 10 0 7 -8 6 -22 -2 -13 -7 -30 -12 -40 -13 -22 0 -36 -15 -15 -15 9 0 17
-4 17 -9 0 -5 11 -8 25 -6 14 1 25 -2 25 -8 0 -5 -9 -7 -20 -4 -11 3 -26 -1
-34 -8 -18 -18 -29 -6 -14 14 7 9 8 13 3 8 -13 -11 -45 23 -45 50 0 28 4 28
30 6 11 -10 23 -18 27 -18 13 0 11 34 -2 39 -10 3 -12 0 -8 -12 6 -15 3 -14
-15 2 -27 24 -28 39 -3 31 14 -4 23 1 33 17 7 13 11 28 10 33 -3 12 25 -22 39
-47z m203 37 c-7 -17 -34 -21 -34 -4 0 5 5 7 10 4 6 -3 10 -1 10 4 0 6 4 11
10 11 5 0 7 -7 4 -15z m241 -15 c-18 -19 -17 -20 6 -20 26 0 65 -20 41 -20
-20 0 -62 -36 -54 -46 4 -5 0 -3 -9 4 -21 16 -22 82 -2 82 8 0 16 7 20 15 3 9
8 13 11 10 3 -2 -3 -14 -13 -25z m90 -20 c3 -5 -1 -10 -9 -10 -8 0 -18 5 -21
10 -3 6 1 10 9 10 8 0 18 -4 21 -10z m540 0 c8 13 35 13 35 -1 0 -5 -5 -7 -11
-4 -6 4 -16 -1 -23 -11 -9 -12 -15 -14 -20 -6 -16 26 -32 12 -28 -25 4 -32 3
-35 -14 -28 -11 4 -24 8 -31 8 -17 1 -5 17 13 17 8 0 14 10 14 24 0 26 26 39
47 24 6 -5 14 -5 18 2z m-1376 -34 c-3 -25 2 -37 12 -30 8 5 8 9 -1 14 -24 15
17 18 47 3 23 -11 30 -21 30 -41 0 -15 -2 -21 -4 -14 -4 10 -8 10 -18 2 -8 -6
-11 -18 -8 -26 4 -10 0 -12 -11 -8 -9 3 -16 11 -16 16 0 6 -6 5 -15 -2 -11 -9
-18 -10 -28 -1 -8 6 -17 8 -20 4 -11 -10 -8 16 3 38 8 14 7 19 -1 19 -8 0 -7
5 2 17 12 15 12 16 -1 8 -12 -7 -13 -6 -3 7 7 8 9 19 5 24 -4 4 1 2 11 -5 9
-8 17 -19 16 -25z m386 24 c3 -5 -1 -10 -9 -10 -9 0 -16 5 -16 10 0 6 4 10 9
10 6 0 13 -4 16 -10z m176 -4 c4 -5 13 -5 20 0 18 11 49 13 43 2 -3 -4 -11 -8
-19 -8 -7 0 -15 -7 -19 -15 -3 -8 -10 -15 -16 -15 -6 0 -8 4 -5 10 3 5 -6 12
-20 16 -13 3 -22 10 -19 15 6 10 26 8 35 -5z m309 4 c0 -5 -5 -10 -11 -10 -5
0 -7 5 -4 10 3 6 8 10 11 10 2 0 4 -4 4 -10z m-460 -52 c0 -5 -13 0 -29 11
-15 11 -31 18 -35 14 -3 -3 -6 1 -6 10 0 14 4 14 35 -4 19 -12 35 -25 35 -31z
m567 -1 c-1 -5 4 -12 12 -15 8 -2 11 0 7 6 -6 11 48 34 58 25 10 -10 7 -33 -4
-33 -5 0 -7 8 -4 18 5 13 4 14 -4 3 -6 -8 -15 -10 -22 -6 -8 5 -11 4 -6 -3 9
-14 -29 -25 -62 -17 -20 5 -23 8 -11 15 11 8 12 13 2 30 -20 31 -15 36 12 10
13 -12 23 -27 22 -33z m317 38 c-4 -8 -10 -13 -14 -10 -10 6 -22 -24 -15 -36
4 -5 -1 -6 -9 -3 -21 8 -20 20 4 44 24 24 42 26 34 5z m66 -21 c0 -10 8 -13
27 -10 14 3 29 9 32 14 8 12 62 22 55 11 -3 -5 1 -9 8 -10 10 0 10 -2 0 -6 -6
-2 -9 -10 -6 -16 5 -9 4 -9 -5 -1 -9 8 -24 9 -52 2 -32 -9 -38 -14 -37 -34 2
-17 6 -20 14 -13 9 7 14 5 17 -8 4 -17 5 -16 12 2 5 11 13 23 19 27 16 11 46
9 46 -3 0 -5 -10 -9 -22 -7 -16 2 -24 -3 -26 -17 -3 -11 -10 -24 -17 -30 -20
-15 -36 -83 -22 -89 7 -2 -1 -5 -17 -5 -24 -1 -26 -3 -16 -15 8 -11 18 -12 35
-6 16 6 25 5 28 -3 2 -7 6 1 9 16 4 21 2 27 -8 23 -8 -3 -14 -4 -14 -2 0 3 -3
12 -7 22 -6 16 -3 15 24 -4 17 -12 33 -19 37 -15 3 3 6 -1 6 -10 0 -9 -7 -17
-16 -17 -11 0 -14 -6 -9 -20 5 -17 -5 -27 -18 -17 -2 1 -11 -4 -20 -11 -9 -8
-22 -10 -28 -6 -7 4 -9 3 -6 -3 4 -6 0 -13 -8 -16 -9 -4 -12 -1 -8 9 3 8 -1
14 -10 14 -8 0 -18 6 -21 13 -5 10 -7 10 -12 0 -3 -7 -10 -13 -16 -13 -6 0 -5
6 2 15 7 9 19 14 27 11 15 -6 18 29 3 39 -6 3 -7 -1 -4 -9 4 -11 0 -16 -15
-16 -12 0 -21 -4 -21 -10 0 -15 -43 -35 -48 -22 -2 6 -11 8 -19 5 -11 -4 -9 1
5 15 24 24 41 30 23 9 -6 -8 -8 -17 -4 -20 9 -10 35 31 28 43 -4 6 -11 8 -16
4 -7 -4 -8 7 -3 31 5 30 4 37 -7 33 -8 -3 -13 -14 -12 -26 2 -15 -2 -19 -17
-15 -11 3 -18 8 -16 12 3 4 1 13 -5 21 -7 12 -9 11 -9 -5 0 -21 34 -58 44 -48
9 9 7 -10 -2 -25 -6 -9 -17 -1 -40 27 -34 42 -62 46 -62 9 0 -11 5 -18 13 -15
6 2 11 10 9 16 -4 18 16 3 29 -21 11 -20 9 -21 -19 -15 -35 7 -45 -1 -31 -23
7 -12 9 -12 9 3 0 14 4 16 19 8 10 -6 21 -7 25 -4 3 3 6 1 6 -5 0 -6 -4 -14
-10 -17 -5 -3 -10 -1 -10 6 0 9 -3 10 -10 3 -7 -7 -7 -21 1 -43 6 -17 9 -35 5
-38 -3 -4 -6 0 -6 8 -1 26 -39 62 -57 54 -17 -8 -17 -8 0 -12 21 -5 22 -19 2
-27 -9 -3 -15 0 -15 9 0 7 -7 21 -17 30 -15 16 -15 17 3 15 10 -1 26 -2 34 -1
12 1 13 3 1 10 -9 6 -10 11 -2 15 6 4 11 17 10 29 l0 22 -9 -22 c-10 -26 -20
-29 -38 -11 -9 9 -12 8 -12 -5 0 -9 8 -17 17 -17 9 0 13 -3 10 -7 -10 -9 -137
-11 -131 -2 2 4 0 9 -6 11 -7 2 -7 14 -1 36 5 17 6 32 2 32 -11 0 -12 48 -1
55 17 11 11 27 -7 20 -13 -4 -15 -3 -7 5 7 7 19 8 37 1 22 -9 27 -8 27 4 0 8
7 15 16 15 9 0 12 5 8 12 -4 6 -3 8 4 5 16 -11 41 3 35 19 -3 8 -1 14 4 14 5
0 9 -9 10 -20 1 -11 -4 -20 -13 -20 -8 0 -14 -4 -14 -10 0 -5 -6 -10 -14 -10
-8 0 -22 -10 -30 -22 -9 -12 -16 -17 -16 -10 0 7 -4 11 -10 7 -5 -3 -7 -11 -4
-18 3 -8 22 -11 59 -9 30 2 55 0 55 -5 0 -18 -13 -23 -28 -10 -13 10 -15 9 -9
-7 4 -10 2 -25 -4 -32 -9 -11 -8 -14 3 -14 8 0 20 10 25 23 9 20 18 23 57 22
37 0 46 3 46 16 0 10 3 25 7 35 4 12 3 15 -5 10 -8 -5 -10 -2 -6 8 4 11 0 16
-10 16 -9 0 -16 5 -16 10 0 15 11 12 45 -10 17 -11 25 -20 19 -20 -7 0 -14 -9
-17 -19 -4 -17 -2 -18 14 -8 18 11 24 26 19 56 -1 8 4 12 13 8 8 -3 20 0 27 6
10 9 12 9 7 -4 -4 -12 1 -15 19 -13 14 1 22 -2 18 -8 -4 -5 -19 -8 -35 -6 -23
4 -29 0 -34 -20 -7 -29 -9 -28 38 -35 23 -4 37 -2 37 5 0 6 14 -5 31 -23 18
-19 26 -26 19 -16 -10 14 -10 17 4 17 9 0 16 5 16 11 0 5 -4 7 -10 4 -5 -3
-10 -1 -10 4 0 6 7 11 15 11 31 0 14 20 -17 21 -18 0 -27 3 -20 6 18 7 15 23
-5 24 -17 1 -17 2 0 6 20 5 23 23 4 23 -7 0 -14 11 -15 26 -1 14 2 23 8 19 6
-3 10 -13 10 -21z m44 13 c-3 -8 -11 -14 -19 -14 -11 0 -12 4 -4 14 6 7 15 13
20 13 5 0 6 -6 3 -13z m-564 -8 c11 -7 4 -8 -24 -3 -30 5 -37 4 -31 -6 5 -9 4
-11 -3 -6 -7 4 -12 11 -12 17 0 12 51 11 70 -2z m42 -1 c3 -7 -4 -20 -15 -28
-13 -11 -19 -29 -19 -63 -1 -26 -6 -51 -11 -54 -6 -4 -8 2 -5 15 8 29 -5 28
-17 0 -6 -14 -19 -23 -33 -24 -28 -2 -36 -9 -27 -24 4 -7 11 -8 18 -1 8 6 18
5 30 -4 17 -12 15 -13 -18 -11 -29 3 -38 -1 -45 -18 -5 -11 -9 -16 -9 -10 -1
13 -61 5 -61 -8 0 -6 12 -8 30 -4 24 4 30 2 30 -12 0 -15 -2 -15 -10 -2 -8 13
-10 12 -10 -3 0 -12 10 -20 31 -24 19 -3 28 -10 25 -19 -3 -7 0 -14 5 -16 7
-2 8 -15 1 -38 -6 -19 -11 -29 -11 -22 -1 10 -6 10 -21 2 -16 -9 -20 -8 -20 5
0 8 6 15 14 15 7 0 19 6 25 14 9 11 6 18 -15 35 -15 12 -34 19 -41 17 -8 -3
-13 2 -13 15 0 11 -4 17 -10 14 -5 -3 -9 -23 -9 -43 1 -20 3 -29 6 -19 3 12
13 17 34 15 18 -1 28 -7 25 -14 -3 -7 0 -15 7 -17 7 -3 2 -4 -11 -4 -14 1 -21
6 -18 14 3 7 -2 13 -10 13 -11 0 -13 -6 -9 -20 8 -24 -2 -26 -26 -4 -15 13
-33 20 -61 23 -5 1 -8 6 -8 12 0 8 6 7 16 -2 15 -12 16 -11 10 9 -4 12 -3 22
2 22 5 0 15 20 21 44 6 24 16 48 23 53 16 12 48 13 48 1 0 -4 5 -8 12 -8 6 0
1 11 -11 24 -21 22 -22 27 -9 45 8 12 19 18 24 13 4 -4 2 1 -5 11 -12 14 -11
17 3 17 10 0 15 7 13 22 -2 20 2 22 32 20 18 -2 31 0 28 5 -3 5 10 7 29 5 28
-4 33 -1 28 12 -3 9 -2 16 4 16 6 0 12 -6 14 -12z m350 -24 c-3 -18 -9 -23
-21 -18 -9 3 -25 9 -36 12 -16 5 -13 8 15 18 48 17 48 17 42 -12z m-848 -19
c-5 -12 0 -14 26 -8 23 4 31 3 26 -5 -4 -6 -13 -9 -21 -5 -8 3 -15 0 -15 -7 0
-9 -3 -10 -14 -1 -7 6 -21 9 -30 5 -10 -4 -16 -1 -16 9 0 8 8 14 18 13 9 0 16
5 14 12 -1 8 2 11 7 7 6 -3 8 -12 5 -20z m759 19 c3 -3 3 -12 0 -20 -4 -11 -8
-12 -20 -3 -11 10 -13 9 -11 -2 2 -8 -6 -14 -22 -16 -14 -1 -17 1 -7 3 9 3 17
14 17 25 0 18 29 27 43 13z m-413 -19 c10 -12 10 -15 -2 -15 -8 0 -15 7 -15
15 0 8 1 15 2 15 2 0 8 -7 15 -15z m-242 -38 c-11 -21 -1 -38 11 -18 10 15 43
8 66 -15 13 -14 15 -13 16 3 1 10 1 24 0 30 -1 7 5 10 13 7 14 -5 14 -9 0 -35
-11 -23 -18 -28 -31 -20 -11 6 -23 5 -35 -3 -13 -8 -21 -8 -26 0 -4 5 -22 16
-40 24 -24 9 -30 15 -20 21 7 5 13 13 13 19 0 6 7 15 15 20 20 12 32 -8 18
-33z m929 37 c-3 -3 -12 -4 -19 -1 -8 3 -5 6 6 6 11 1 17 -2 13 -5z m-1207
-29 c0 -2 -10 -10 -22 -16 -21 -11 -22 -11 -9 4 13 16 31 23 31 12z m968 -39
c5 -23 -25 -20 -38 3 -5 11 -10 25 -10 32 0 17 44 -14 48 -35z m310 33 c-2 -6
-7 -10 -12 -9 -5 1 -13 -4 -17 -12 -6 -9 -9 -7 -9 10 0 16 6 22 21 22 11 0 19
-5 17 -11z m-1504 -20 c-3 -5 -10 -7 -15 -3 -5 3 -7 10 -3 15 3 5 10 7 15 3 5
-3 7 -10 3 -15z m460 -14 c28 -13 43 -24 33 -24 -10 -1 -27 3 -37 9 -13 7 -21
6 -30 -5 -7 -9 -10 -18 -6 -22 3 -3 6 -1 6 6 0 7 4 10 9 7 5 -4 27 -7 50 -8
39 -1 84 -17 51 -18 -10 0 -11 -3 -4 -8 8 -5 8 -15 2 -32 -9 -24 -10 -24 -24
-6 -8 11 -14 14 -14 8 0 -7 -4 -12 -10 -12 -5 0 -7 7 -4 15 4 8 -1 17 -10 21
-9 3 -13 10 -10 15 3 5 -4 9 -15 9 -12 0 -21 -3 -21 -7 0 -5 -15 -8 -33 -9
-17 -1 -27 1 -20 3 7 2 10 10 7 18 -3 7 0 16 7 21 9 5 10 2 6 -9 -9 -25 -2
-21 19 11 14 21 14 24 2 14 -11 -9 -18 -10 -23 -2 -3 5 -19 10 -35 10 -15 0
-37 3 -47 7 -16 6 -15 8 7 14 35 11 83 2 144 -26z m496 0 c0 -5 -5 -3 -10 5
-5 8 -10 20 -10 25 0 6 5 3 10 -5 5 -8 10 -19 10 -25z m177 20 c0 -5 4 -19 9
-30 7 -18 6 -18 -9 -6 -9 7 -17 21 -18 30 0 10 -2 11 -6 4 -2 -7 -11 -13 -19
-13 -9 0 -12 5 -9 11 4 6 -2 5 -13 -2 -12 -7 -25 -10 -29 -6 -4 5 -1 12 7 17
19 12 87 8 87 -5z m223 6 c0 -5 -7 -11 -15 -15 -8 -3 -15 0 -15 7 0 8 -3 8 -9
-2 -5 -7 -14 -10 -20 -7 -6 4 -9 12 -6 17 8 12 65 12 65 0z m-1070 -17 c0 -10
6 -14 15 -11 8 4 17 2 19 -2 3 -5 17 -6 32 -3 20 4 25 1 22 -9 -3 -8 -10 -14
-17 -14 -7 0 -18 -8 -25 -17 -7 -10 -17 -18 -21 -18 -4 0 -2 7 5 15 6 8 9 18
6 23 -10 16 -57 24 -72 11 -11 -9 -14 -8 -14 5 0 10 4 15 9 12 5 -3 11 1 15 9
7 20 26 19 26 -1z m-220 -15 c10 -18 10 -19 -7 -10 -45 26 -49 31 -26 31 12 0
27 -9 33 -21z m866 -58 c2 -23 1 -41 -2 -41 -9 0 -64 30 -64 36 0 2 9 0 20 -6
11 -6 20 -7 20 -1 0 11 -29 23 -40 16 -5 -3 -7 -12 -3 -20 3 -9 -1 -15 -9 -15
-7 0 -14 9 -15 21 -1 15 7 24 30 32 18 6 35 10 40 9 4 -1 7 3 7 10 0 27 12 -4
16 -41z m-826 -6 c10 -12 9 -15 -4 -15 -10 0 -15 4 -12 9 4 5 0 12 -6 14 -8 4
-9 6 -2 6 6 1 17 -6 24 -14z m250 11 c0 -3 -4 -8 -10 -11 -5 -3 -10 -1 -10 4
0 6 5 11 10 11 6 0 10 -2 10 -4z m305 -16 c3 -5 1 -10 -4 -10 -6 0 -11 5 -11
10 0 6 2 10 4 10 3 0 8 -4 11 -10z m-265 -19 c0 -20 25 -35 41 -25 5 3 9 -2 9
-11 0 -12 -6 -15 -22 -9 -32 9 -48 24 -48 43 0 14 -2 14 -10 1 -5 -8 -10 -10
-10 -4 0 14 10 24 27 24 7 0 13 -9 13 -19z m214 7 c-6 -10 -5 -10 8 0 13 10
18 9 29 -4 11 -13 10 -17 -2 -24 -8 -6 -15 -6 -17 0 -2 5 -17 7 -33 3 -24 -5
-28 -3 -23 11 3 9 10 13 15 10 5 -3 9 0 9 5 0 6 5 11 11 11 5 0 7 -6 3 -12z
m293 -25 c18 -3 30 -10 27 -15 -4 -6 2 -7 16 -3 15 5 20 4 16 -4 -4 -6 -14
-11 -22 -11 -8 0 -14 -7 -14 -15 0 -8 -9 -29 -20 -47 -11 -18 -20 -43 -20 -55
0 -18 -6 -23 -24 -23 -13 0 -27 -6 -30 -12 -3 -7 -4 -1 -2 15 2 18 -1 27 -10
27 -8 0 -11 -6 -7 -17 4 -11 3 -14 -5 -9 -15 9 -15 43 0 52 6 4 8 3 5 -3 -4
-6 3 -13 14 -16 12 -3 19 -9 16 -14 -3 -5 2 -9 12 -9 10 0 18 6 18 13 0 7 -5
10 -11 7 -6 -3 -2 2 8 10 11 9 15 16 8 16 -6 0 -9 7 -6 15 4 8 9 13 13 11 4
-3 8 5 8 16 1 12 7 25 14 29 10 6 -28 6 -103 0 -4 -1 -4 -9 -1 -18 4 -11 -5
-6 -20 11 -31 33 -32 37 -14 55 12 12 39 11 134 -6z m-265 -23 c6 0 6 -6 -2
-15 -16 -19 -37 -19 -56 -1 -12 13 -12 15 4 19 9 3 23 3 30 1 8 -2 18 -4 24
-4z m-247 -20 c4 -6 11 -7 17 -4 7 5 8 2 3 -7 -8 -12 -6 -12 8 0 15 12 17 11
17 -2 0 -17 -21 -42 -42 -50 -10 -4 -10 -7 1 -15 18 -13 3 -19 -41 -18 -20 1
-34 -2 -32 -6 3 -5 -1 -10 -8 -13 -8 -3 -14 -15 -15 -26 -1 -15 2 -18 10 -11
16 13 56 -3 53 -20 -3 -24 -18 -39 -32 -34 -8 3 -14 1 -14 -4 0 -5 -6 -7 -12
-5 -8 3 -19 -10 -28 -32 l-16 -37 -22 24 c-49 54 -57 63 -45 56 7 -4 5 7 -5
26 -20 41 -23 68 -6 68 21 0 44 -12 44 -22 0 -6 -6 -8 -12 -5 -8 3 -13 -4 -13
-19 0 -13 1 -24 2 -24 1 0 11 16 23 35 21 33 43 47 38 24 -5 -20 20 -21 26 -1
8 25 46 69 46 53 0 -7 5 -9 11 -5 6 3 15 0 20 -7 6 -9 9 -10 9 -2 0 6 -7 18
-15 27 -11 10 -12 17 -4 22 6 3 15 1 19 -6 5 -8 15 -10 26 -5 18 8 18 8 1 12
-9 3 -14 9 -10 15 4 7 0 9 -10 5 -17 -6 -31 5 -20 17 9 9 21 7 28 -4z m611 1
c-3 -5 1 -11 9 -14 9 -4 12 -1 8 9 -4 10 1 13 18 10 13 -3 26 -5 29 -6 3 -2 8
-2 12 -2 3 1 12 -6 20 -15 9 -12 9 -15 1 -9 -7 4 -13 3 -13 -3 0 -5 4 -12 9
-15 10 -6 2 -56 -8 -56 -4 0 -6 14 -3 30 4 26 2 29 -14 23 -10 -4 -13 -8 -7
-10 6 -2 9 -15 7 -29 -2 -13 0 -24 6 -24 5 0 10 -4 10 -10 0 -14 -16 -12 -33
5 -8 8 -17 11 -21 8 -3 -3 2 -12 12 -20 16 -13 16 -13 -3 -11 -11 2 -35 20
-52 41 -18 22 -33 33 -33 27 0 -7 11 -21 25 -32 14 -11 23 -24 20 -29 -6 -8 8
-13 28 -10 13 2 7 -16 -10 -30 -9 -8 -14 -9 -10 -3 4 7 -5 19 -19 29 -18 11
-24 13 -19 4 5 -8 -3 -3 -17 9 l-26 24 19 41 c10 23 19 50 19 60 0 10 8 17 21
17 11 0 18 -4 15 -9z m244 -3 c0 -7 -11 -13 -24 -13 -18 0 -22 3 -14 13 6 6
17 12 24 12 8 0 14 -6 14 -12z m-1215 -7 c3 -5 1 -12 -5 -16 -5 -3 -10 1 -10
9 0 18 6 21 15 7z m849 -10 c4 -5 1 -11 -4 -13 -6 -2 -12 -13 -13 -26 -2 -26
-1 -26 -30 -9 -12 6 -23 13 -25 14 -2 1 1 11 8 22 11 21 54 29 64 12z m-642
-19 c-7 -2 -12 -8 -12 -13 0 -10 22 -8 31 4 3 4 12 1 19 -8 12 -14 10 -15 -14
-11 -23 4 -26 2 -21 -15 4 -11 2 -19 -5 -19 -6 0 -8 -5 -4 -12 5 -8 1 -7 -10
2 -16 12 -16 15 -2 20 11 3 13 9 6 20 -8 13 -11 12 -24 -5 -15 -20 -15 -20
-16 2 0 13 8 24 20 28 11 3 20 11 20 16 0 6 5 7 12 3 9 -6 9 -9 0 -12z m938
-2 c0 -5 -4 -10 -10 -10 -5 0 -10 5 -10 10 0 6 5 10 10 10 6 0 10 -4 10 -10z
m-570 -50 c0 -5 -5 -10 -11 -10 -5 0 -7 5 -4 10 3 6 8 10 11 10 2 0 4 -4 4
-10z m-230 -42 c0 -20 -15 -24 -25 -8 -4 6 -11 8 -16 5 -9 -6 -13 8 -4 16 12
13 45 3 45 -13z m1185 12 c3 -6 -1 -7 -9 -4 -18 7 -21 14 -7 14 6 0 13 -4 16
-10z m-1104 -44 c-6 -7 -8 -16 -4 -19 3 -4 -5 -7 -18 -7 -22 1 -23 2 -6 14 9
7 17 19 17 25 0 7 5 9 10 6 8 -5 8 -11 1 -19z m409 9 c0 -8 -4 -15 -10 -15 -5
0 -10 7 -10 15 0 8 5 15 10 15 6 0 10 -7 10 -15z m687 -7 c-3 -8 -6 -5 -6 6
-1 11 2 17 5 13 3 -3 4 -12 1 -19z m-501 -42 c-13 -26 -14 -26 -19 -5 -3 12
-1 30 6 40 18 29 30 -3 13 -35z m-1113 2 c-2 -5 -8 -8 -14 -8 -11 0 -12 33 -2
44 8 8 23 -25 16 -36z m885 24 c2 -7 -2 -10 -12 -6 -9 3 -16 11 -16 16 0 13
23 5 28 -10z m-824 -15 c4 4 4 0 0 -10 -5 -14 -9 -15 -20 -6 -8 6 -14 16 -14
21 0 7 5 6 13 -1 8 -6 17 -8 21 -4z m1026 -27 c0 -11 -2 -20 -5 -20 -2 0 -9 9
-15 20 -9 16 -8 20 5 20 8 0 15 -9 15 -20z m-1190 -10 c0 -5 -4 -10 -10 -10
-5 0 -10 5 -10 10 0 6 5 10 10 10 6 0 10 -4 10 -10z m506 -9 c-7 -11 -46 -11
-46 0 0 7 41 17 49 13 1 -2 0 -7 -3 -13z m136 -23 c15 -6 52 -36 82 -68 51
-53 56 -63 56 -103 0 -27 -6 -49 -15 -57 -11 -9 -12 -17 -4 -32 6 -11 9 -21 7
-24 -3 -2 -31 1 -65 7 -58 10 -61 12 -90 62 -17 29 -36 68 -44 87 -21 56 -57
98 -91 106 -26 5 -29 8 -15 16 10 5 22 6 27 3 6 -3 10 0 11 7 0 7 4 4 9 -7 8
-20 9 -20 9 1 1 11 3 23 6 26 6 5 72 -8 117 -24z m-216 -154 c-5 -12 -2 -15
11 -10 10 4 14 4 11 0 -4 -3 3 -15 15 -25 12 -10 16 -18 10 -19 -7 0 -13 5
-13 12 0 6 -3 8 -7 5 -3 -4 -17 5 -30 19 -12 14 -23 20 -23 14 0 -6 -4 -8 -10
-5 -19 12 -10 25 16 25 20 0 25 -4 20 -16z m-131 -24 c-3 -5 -11 -10 -16 -10
-6 0 -7 5 -4 10 3 6 11 10 16 10 6 0 7 -4 4 -10z m252 -66 c18 -12 29 -25 25
-28 -3 -4 1 -4 11 0 10 4 17 1 17 -6 0 -7 6 -10 13 -7 23 9 37 -26 22 -54 -14
-25 -23 -26 -40 -3 -5 7 -22 18 -37 23 -25 9 -26 8 -22 -15 2 -13 0 -24 -6
-24 -6 0 -8 5 -4 11 5 8 -1 10 -19 5 -15 -3 -29 -1 -32 5 -5 7 -12 6 -23 -4
-20 -17 -55 -19 -49 -3 3 6 13 37 23 69 10 31 22 57 27 57 5 0 7 -7 3 -15 -8
-22 17 -14 26 8 8 19 9 19 65 -19z m382 -47 c0 -12 -3 -16 -6 -9 -2 6 -9 10
-14 6 -5 -3 -9 -2 -10 3 0 4 -2 16 -4 25 -3 15 0 16 16 8 10 -6 19 -21 18 -33z
m-125 -9 c-3 -5 2 -8 11 -8 10 0 13 5 9 13 -5 8 -2 8 9 -2 19 -15 23 -36 5
-25 -7 5 -9 2 -5 -9 4 -11 2 -14 -9 -10 -8 3 -14 -1 -14 -11 0 -10 -5 -13 -17
-9 -11 4 -14 3 -9 -5 4 -7 2 -12 -4 -12 -11 0 -9 57 3 77 4 6 4 19 1 30 -6 16
-5 16 9 -2 8 -11 13 -23 11 -27z m-71 -14 c15 -3 27 -11 27 -16 0 -14 -62 1
-80 19 -13 13 -13 15 5 10 11 -4 32 -9 48 -13z m187 -16 c0 -4 -4 -8 -9 -8 -6
0 -12 4 -15 8 -3 5 1 9 9 9 8 0 15 -4 15 -9z m-660 -19 c0 8 3 12 6 8 3 -3 -1
-15 -9 -27 -13 -18 -15 -19 -21 -5 -3 9 -6 24 -6 33 0 13 3 12 15 -4 10 -13
14 -15 15 -5z m310 12 c0 -6 -4 -12 -8 -15 -5 -3 -9 1 -9 9 0 8 4 15 9 15 4 0
8 -4 8 -9z m208 -126 c0 -30 -7 -28 -13 4 -2 11 0 21 4 21 5 0 9 -11 9 -25z
m42 -13 c0 -8 -1 -13 -3 -11 -1 2 -9 12 -16 22 -12 15 -12 17 3 11 9 -3 16
-13 16 -22z"/>
<path d="M2250 1580 c0 -5 5 -10 11 -10 5 0 7 5 4 10 -3 6 -8 10 -11 10 -2 0
-4 -4 -4 -10z"/>
<path d="M1393 1525 c5 -14 29 -13 34 2 3 7 -4 11 -16 10 -12 -1 -20 -6 -18
-12z"/>
<path d="M1434 1409 c-2 -4 -11 -6 -20 -2 -8 3 -22 -3 -30 -13 -14 -17 -15
-17 -10 -1 3 9 1 17 -4 17 -6 0 -10 -4 -10 -9 0 -5 -3 -17 -6 -25 -4 -12 -2
-15 9 -10 10 3 18 -2 22 -15 10 -33 32 -24 26 12 0 4 9 7 22 7 16 0 18 3 8 9
-11 7 -10 11 7 20 17 9 19 8 15 -8 -3 -10 0 -22 6 -25 10 -7 12 -2 15 37 1 13
-42 19 -50 6z m-28 -44 c1 -8 -1 -15 -6 -15 -10 0 -20 26 -13 34 8 8 16 -1 19
-19z"/>
<path d="M1440 1290 c-8 -5 -11 -10 -6 -10 5 0 4 -6 -1 -12 -6 -7 -9 -23 -8
-36 1 -18 -2 -22 -17 -19 -10 3 -21 1 -24 -5 -4 -6 6 -8 22 -6 25 2 30 9 39
43 5 22 14 43 20 47 16 12 -7 9 -25 -2z"/>
<path d="M1350 1270 c-9 -6 -10 -10 -3 -10 6 0 15 5 18 10 8 12 4 12 -15 0z"/>
<path d="M1395 1240 c4 -6 11 -8 16 -5 14 9 11 15 -7 15 -8 0 -12 -5 -9 -10z"/>
<path d="M1543 1487 c-28 -27 -28 -28 -3 -57 18 -20 21 -21 35 -6 11 11 14 23
9 38 -4 13 -7 29 -6 36 4 18 -10 14 -35 -11z m22 -39 c-19 -11 -30 -5 -21 11
4 6 14 7 22 4 15 -5 14 -7 -1 -15z"/>
<path d="M1902 1443 c4 -18 21 -18 24 0 1 8 -5 14 -13 14 -7 0 -13 -7 -11 -14z"/>
<path d="M1941 1434 c0 -11 3 -14 6 -6 3 7 2 16 -1 19 -3 4 -6 -2 -5 -13z"/>
<path d="M1890 1401 c0 -11 -8 -24 -17 -30 -13 -7 -15 -13 -7 -21 8 -8 15 -6
24 6 18 20 23 51 10 59 -6 3 -10 -3 -10 -14z"/>
<path d="M1916 1394 c-4 -10 -1 -14 6 -12 15 5 23 28 10 28 -5 0 -13 -7 -16
-16z"/>
<path d="M2130 1350 c0 -5 5 -10 10 -10 6 0 10 5 10 10 0 6 -4 10 -10 10 -5 0
-10 -4 -10 -10z"/>
<path d="M2105 1320 c27 -12 43 -12 25 0 -8 5 -22 9 -30 9 -10 0 -8 -3 5 -9z"/>
<path d="M2160 1326 c0 -2 8 -10 18 -17 15 -13 16 -12 3 4 -13 16 -21 21 -21
13z"/>
<path d="M2200 1306 c0 -8 7 -17 16 -20 25 -9 26 -2 4 17 -16 13 -20 14 -20 3z"/>
<path d="M2205 1230 c3 -5 8 -10 11 -10 2 0 4 5 4 10 0 6 -5 10 -11 10 -5 0
-7 -4 -4 -10z"/>
<path d="M1770 1021 c0 -6 5 -13 10 -16 6 -3 10 1 10 9 0 9 -4 16 -10 16 -5 0
-10 -4 -10 -9z"/>
<path d="M1674 1369 c0 -22 12 -25 19 -5 3 8 0 16 -6 19 -7 3 -13 -3 -13 -14z"/>
<path d="M1850 1130 c0 -5 5 -10 11 -10 5 0 7 5 4 10 -3 6 -8 10 -11 10 -2 0
-4 -4 -4 -10z"/>
<path d="M1090 1059 c0 -5 5 -7 10 -4 6 3 10 8 10 11 0 2 -4 4 -10 4 -5 0 -10
-5 -10 -11z"/>
<path d="M1616 1104 c-8 -20 -4 -25 11 -16 7 4 9 13 4 21 -6 10 -10 9 -15 -5z"/>
<path d="M950 1061 c0 -5 -10 -11 -22 -13 -18 -3 -19 -5 -6 -15 12 -11 18 -9
32 6 11 12 14 21 7 26 -6 3 -11 2 -11 -4z"/>
<path d="M872 1041 c2 -7 7 -12 11 -12 12 1 9 15 -3 20 -7 2 -11 -2 -8 -8z"/>
<path d="M1850 977 c0 -4 12 -26 27 -50 15 -23 27 -44 26 -47 -3 -10 36 -9 43
1 3 5 0 8 -8 7 -7 -2 -12 4 -10 12 2 8 1 12 -3 8 -10 -10 -33 15 -28 30 4 10
10 9 24 -4 22 -19 33 -15 23 9 -6 16 -36 18 -51 3 -4 -4 -15 3 -25 16 -10 13
-18 20 -18 15z"/>
<path d="M2110 960 c0 -5 5 -10 10 -10 6 0 10 5 10 10 0 6 -4 10 -10 10 -5 0
-10 -4 -10 -10z"/>
<path d="M2217 954 c-10 -10 16 -44 33 -43 10 0 11 2 2 6 -6 2 -10 8 -7 13 6
10 -20 32 -28 24z"/>
<path d="M2185 930 c3 -5 0 -10 -7 -10 -10 0 -10 -2 0 -9 8 -4 13 -12 12 -17
-1 -5 3 -10 8 -12 14 -4 21 35 9 47 -14 14 -30 14 -22 1z"/>
<path d="M1983 914 c-3 -8 -1 -20 6 -27 8 -8 11 -4 11 16 0 30 -7 35 -17 11z"/>
<path d="M1870 880 c6 -11 13 -20 16 -20 2 0 0 9 -6 20 -6 11 -13 20 -16 20
-2 0 0 -9 6 -20z"/>
<path d="M2246 855 c-3 -8 -1 -15 4 -15 6 0 10 7 10 15 0 8 -2 15 -4 15 -2 0
-6 -7 -10 -15z"/>
<path d="M1913 853 c9 -2 23 -2 30 0 6 3 -1 5 -18 5 -16 0 -22 -2 -12 -5z"/>
<path d="M2274 848 c-3 -4 2 -8 10 -8 8 0 17 4 20 8 3 5 -2 9 -10 9 -8 0 -17
-4 -20 -9z"/>
<path d="M1683 1037 c3 -7 10 -11 16 -9 7 1 10 -2 6 -7 -3 -6 -11 -8 -19 -5
-7 3 -13 -2 -13 -10 0 -13 4 -13 28 1 31 18 30 28 -1 36 -14 3 -20 1 -17 -6z"/>
<path d="M1640 994 c0 -14 35 -54 47 -54 7 0 -27 59 -37 65 -5 3 -10 -1 -10
-11z"/>
<path d="M1680 980 c0 -5 5 -10 10 -10 6 0 10 5 10 10 0 6 -4 10 -10 10 -5 0
-10 -4 -10 -10z"/>
<path d="M1610 971 c0 -12 29 -35 36 -28 4 3 -1 13 -9 22 -17 17 -27 19 -27 6z"/>
<path d="M1590 898 c0 -5 9 -8 19 -8 11 0 22 3 24 8 3 4 -6 7 -19 7 -13 0 -24
-3 -24 -7z"/>
<path d="M1560 890 c0 -5 5 -10 11 -10 5 0 7 5 4 10 -3 6 -8 10 -11 10 -2 0
-4 -4 -4 -10z"/>
<path d="M1537 817 c-11 -29 -9 -43 4 -30 6 6 9 19 7 29 -3 18 -4 18 -11 1z"/>
<path d="M2080 1066 c0 -2 7 -7 16 -10 8 -3 12 -2 9 4 -6 10 -25 14 -25 6z"/>
<path d="M1345 1000 c-3 -5 -2 -10 4 -10 5 0 13 5 16 10 3 6 2 10 -4 10 -5 0
-13 -4 -16 -10z"/>
<path d="M1365 910 c3 -5 11 -10 16 -10 6 0 7 5 4 10 -3 6 -11 10 -16 10 -6 0
-7 -4 -4 -10z"/>
<path d="M1657 856 c-6 -16 1 -26 19 -26 8 0 11 6 8 15 -5 11 -2 13 10 9 9 -3
14 -9 11 -14 -2 -4 7 -5 20 -2 14 2 25 9 25 14 0 5 -9 7 -19 3 -11 -3 -22 -1
-26 5 -9 15 -42 12 -48 -4z"/>
<path d="M1126 636 c1 -74 3 -83 14 -66 5 9 5 19 -1 26 -7 8 -6 15 2 20 8 5 9
3 4 -7 -7 -11 -5 -11 9 1 10 8 13 16 8 18 -6 2 -9 9 -6 17 3 7 -3 18 -13 23
-16 9 -18 6 -17 -32z"/>
<path d="M1195 649 c-4 -6 -5 -12 -2 -15 2 -3 7 2 10 11 7 17 1 20 -8 4z"/>
<path d="M1100 595 c0 -5 5 -17 10 -25 5 -8 10 -10 10 -5 0 6 -5 17 -10 25 -5
8 -10 11 -10 5z"/>
<path d="M1914 788 c-12 -36 -13 -48 -3 -48 6 0 9 6 8 13 -3 22 1 37 9 35 4
-2 8 1 10 7 2 5 -1 11 -6 13 -6 2 -14 -7 -18 -20z"/>
<path d="M1695 781 c-3 -9 -3 -12 1 -8 4 4 14 1 23 -5 9 -7 13 -8 9 -4 -4 5
-3 15 3 22 8 10 6 13 -10 11 -11 -1 -23 -8 -26 -16z"/>
<path d="M1252 558 c-16 -16 -15 -29 4 -53 16 -20 16 -20 9 3 -5 16 -2 22 10
22 9 0 13 5 10 10 -4 6 -11 7 -17 4 -7 -5 -9 -1 -5 9 8 20 5 21 -11 5z"/>
<path d="M1191 291 c-1 -7 -7 -11 -16 -7 -8 3 -15 1 -15 -5 0 -6 -4 -8 -9 -5
-5 3 -11 -5 -13 -17 -5 -24 8 -28 44 -13 9 4 21 5 27 2 5 -3 11 -1 13 6 6 16
94 -3 91 -20 -2 -7 4 -12 12 -12 35 0 -1 49 -37 50 -9 0 -24 8 -34 17 -15 16
-17 16 -29 0 -16 -22 -22 -21 -28 1 -3 9 -5 11 -6 3z"/>
<path d="M1497 229 c4 -13 8 -18 11 -10 2 7 -1 18 -6 23 -8 8 -9 4 -5 -13z"/>
<path d="M1574 1761 c4 -6 2 -11 -5 -11 -7 0 -9 -3 -6 -7 4 -3 2 -12 -5 -20
-9 -11 -6 -19 12 -36 16 -15 21 -17 17 -6 -3 9 0 16 9 16 7 0 11 -4 8 -9 -3
-5 -1 -15 6 -23 8 -10 8 -15 -1 -20 -8 -6 -7 -10 2 -17 10 -7 5 -8 -13 -4 -17
4 -28 2 -28 -4 0 -6 4 -9 8 -6 4 2 14 1 22 -5 13 -7 12 -9 -1 -9 -9 0 -19 -9
-22 -21 -5 -19 -4 -20 12 -5 10 9 21 16 26 16 4 0 13 8 20 17 11 14 10 19 -3
29 -11 8 -12 13 -4 18 7 4 12 2 12 -3 0 -19 30 -12 31 7 0 13 2 14 6 2 10 -32
27 -60 35 -60 5 0 7 4 3 9 -3 5 -1 12 5 16 6 4 7 12 3 18 -4 7 -6 25 -4 41 2
21 -1 26 -10 20 -9 -5 -11 -2 -6 10 5 14 3 15 -13 6 -25 -13 -33 -13 -24 2 4
7 3 8 -4 4 -6 -4 -30 5 -53 19 -23 15 -38 22 -35 16z m43 -36 c21 -15 22 -55
1 -55 -5 0 -6 5 -3 11 4 6 -3 21 -16 35 -25 27 -15 32 18 9z m81 -44 c3 -9 0
-11 -7 -7 -7 4 -19 2 -27 -5 -19 -16 -30 -4 -14 16 15 18 41 16 48 -4z"/>
<path d="M1824 1697 c1 -18 7 -24 24 -24 27 -1 25 15 -5 34 -19 13 -21 12 -19
-10z"/>
<path d="M1792 1689 c2 -6 8 -10 13 -10 5 0 11 4 13 10 2 6 -4 11 -13 11 -9 0
-15 -5 -13 -11z"/>
<path d="M1880 1685 c0 -5 5 -17 10 -25 5 -8 10 -10 10 -5 0 6 -5 17 -10 25
-5 8 -10 11 -10 5z"/>
<path d="M1015 1619 c-4 -12 -2 -26 5 -33 10 -8 11 -8 5 3 -5 9 -4 12 2 8 13
-8 9 -52 -5 -51 -27 2 -32 5 -32 16 0 9 3 9 12 0 7 -7 17 -12 23 -12 5 0 3 6
-6 13 -9 7 -18 19 -22 27 -4 12 -6 11 -6 -2 -1 -10 -6 -18 -11 -18 -6 0 -6 -7
2 -19 7 -11 21 -18 35 -16 14 1 23 -3 23 -11 0 -7 -8 -11 -20 -9 -32 6 -33
-13 0 -20 16 -4 33 -11 36 -17 5 -7 2 -8 -7 -3 -8 5 -11 5 -7 0 11 -12 -11
-35 -34 -35 -10 0 -17 -4 -14 -9 4 -5 0 -11 -6 -14 -9 -3 -6 -10 10 -22 15
-11 22 -26 22 -51 0 -24 5 -34 15 -34 18 0 20 -26 2 -33 -14 -5 -21 -57 -7
-57 5 0 12 5 15 10 3 6 1 10 -6 10 -7 0 -9 3 -6 6 4 4 14 1 23 -6 13 -12 17
-11 25 1 13 20 11 27 -8 39 -14 8 -14 10 -3 9 31 -3 50 1 50 11 0 5 -7 7 -15
4 -8 -4 -15 -1 -15 6 0 6 9 10 20 8 10 -2 19 2 19 7 0 6 -10 9 -22 8 -27 -3
-113 69 -103 86 4 6 12 9 17 5 5 -3 7 -10 4 -15 -4 -5 -2 -9 4 -9 5 0 23 -13
39 -30 25 -24 35 -28 54 -21 17 6 26 4 35 -8 11 -13 12 -10 6 18 -4 24 -3 32
5 27 6 -4 8 -14 5 -23 -5 -12 -3 -14 6 -8 8 4 17 2 21 -6 10 -15 4 -29 -11
-29 -6 0 -7 5 -3 12 4 7 3 8 -4 4 -7 -4 -12 -15 -13 -24 0 -12 -3 -11 -9 6 -5
12 -12 22 -15 22 -4 0 -3 -5 0 -10 3 -6 -1 -17 -9 -26 -9 -8 -16 -23 -16 -32
0 -13 -2 -14 -8 -4 -6 8 -9 2 -9 -18 0 -34 20 -36 25 -2 2 12 7 22 12 22 5 0
7 7 3 15 -4 13 0 15 21 11 18 -3 29 0 33 10 3 8 14 14 24 14 10 0 19 7 19 15
0 8 -6 12 -14 9 -9 -3 -17 6 -24 25 -7 20 -20 33 -36 37 -32 8 -35 25 -3 18
12 -3 27 -6 34 -6 6 -1 9 -8 5 -16 -3 -10 -1 -13 6 -8 8 4 10 2 6 -7 -3 -8 -1
-18 4 -21 11 -7 10 69 -1 80 -4 4 -7 2 -7 -4 0 -7 -5 -12 -11 -12 -5 0 -7 5
-4 10 3 6 1 10 -4 10 -6 0 -11 -4 -11 -10 0 -12 -22 -9 -32 4 -7 10 -42 -10
-72 -39 -9 -9 -16 -11 -16 -5 0 6 -4 9 -9 6 -5 -3 -11 0 -14 8 -4 9 3 16 19
19 13 2 24 -1 24 -6 0 -8 4 -7 11 0 17 17 1 37 -17 22 -22 -18 -28 -3 -10 22
14 21 14 24 -1 42 -10 10 -16 31 -15 47 1 16 -5 35 -14 44 -8 9 -11 16 -5 16
5 0 13 -5 16 -10 7 -12 25 -4 25 11 0 6 -4 7 -10 4 -5 -3 -10 -1 -10 4 0 20
-29 11 -35 -10z m115 -243 c0 -8 -7 -17 -16 -20 -22 -9 -23 -8 -16 16 3 14 2
19 -6 14 -13 -7 -17 6 -6 17 10 10 44 -12 44 -27z m-56 -65 c-3 -3 -9 0 -13 8
-5 7 -12 12 -17 11 -5 0 -11 7 -13 17 -3 15 1 14 23 -6 14 -14 23 -27 20 -30z"/>
<path d="M1104 1629 c-7 -11 12 -29 31 -29 6 0 17 5 25 11 12 8 9 9 -12 5 -16
-4 -30 -1 -34 6 -4 6 -3 8 4 4 6 -3 13 -2 17 4 3 5 -1 10 -9 10 -8 0 -18 -5
-22 -11z"/>
<path d="M1960 1626 c0 -8 -6 -16 -12 -19 -10 -4 -10 -7 0 -18 15 -16 16 -29
1 -29 -5 0 -7 5 -4 10 3 6 2 10 -3 10 -13 0 -36 -29 -29 -37 4 -3 -1 -11 -9
-18 -15 -11 -15 -12 0 -12 8 0 18 8 21 18 3 9 17 20 31 23 19 5 23 10 15 19
-6 8 -6 18 -1 27 13 20 12 40 0 40 -5 0 -10 -6 -10 -14z"/>
<path d="M2091 1631 c-10 -7 -10 -10 -1 -16 6 -4 16 -3 22 3 13 13 -4 23 -21
13z"/>
<path d="M2300 1626 c0 -18 27 -46 43 -46 7 0 4 7 -5 14 -10 7 -18 18 -18 24
0 6 -4 14 -10 17 -5 3 -10 -1 -10 -9z"/>
<path d="M2335 1631 c-3 -5 -1 -12 5 -16 5 -3 10 1 10 9 0 18 -6 21 -15 7z"/>
<path d="M1653 1615 c-21 -23 -15 -36 7 -18 20 18 26 33 13 33 -5 -1 -14 -7
-20 -15z"/>
<path d="M1818 1608 c-10 -9 -14 -19 -10 -22 13 -8 34 10 30 25 -2 12 -6 11
-20 -3z"/>
<path d="M1465 1570 c4 -6 10 -8 14 -6 4 3 13 0 21 -6 13 -8 12 -9 -2 -5 -9 3
-22 -2 -30 -11 -8 -9 -8 -13 -1 -9 6 4 13 2 15 -3 2 -7 10 -6 22 3 26 19 14
47 -19 47 -15 0 -24 -4 -20 -10z"/>
<path d="M1309 1563 c0 -4 -2 -19 -5 -33 -3 -17 -1 -21 5 -11 5 7 13 16 19 20
6 4 5 11 -4 19 -8 7 -14 9 -15 5z"/>
<path d="M1866 1551 c9 -9 34 -9 34 -1 0 5 -9 8 -20 7 -10 -1 -17 -3 -14 -6z"/>
<path d="M1068 1528 c2 -10 10 -17 17 -14 8 3 15 -5 18 -20 3 -18 1 -22 -8
-14 -9 8 -15 6 -19 -7 -4 -10 -4 -14 0 -10 4 4 13 2 20 -4 8 -7 14 -7 19 1 4
6 12 7 24 1 16 -9 44 -1 42 13 -3 19 1 18 10 -4 10 -24 11 -24 25 -6 14 19 14
19 16 -5 0 -13 2 -29 2 -36 1 -7 7 -18 15 -25 9 -9 12 -9 7 -1 -9 17 -15 103
-6 98 4 -2 7 8 6 24 -1 25 -4 28 -23 20 -14 -5 -25 -4 -29 2 -4 7 -10 7 -18 0
-9 -7 -16 -7 -24 1 -9 9 -15 7 -26 -8 -14 -18 -17 -18 -44 -3 -28 16 -29 16
-24 -3z m159 -10 c13 15 13 14 3 -6 -8 -16 -18 -22 -30 -19 -11 3 -24 -1 -31
-9 -14 -17 -35 -18 -44 -3 -4 6 -1 10 6 8 28 -3 39 1 39 17 0 8 5 12 10 9 6
-3 10 2 11 12 0 15 2 14 11 -4 10 -21 12 -22 25 -5z m-71 -4 c-3 -9 -6 -18 -6
-20 0 -3 -4 -3 -10 1 -11 7 -2 35 12 35 6 0 7 -7 4 -16z"/>
<path d="M872 1513 c-9 -23 -37 -30 -29 -8 7 17 -8 21 -18 4 -7 -11 25 -40 36
-33 4 2 9 -3 13 -11 3 -8 0 -17 -6 -21 -6 -4 -8 -3 -5 2 8 14 -28 12 -41 -2
-8 -9 -7 -14 4 -18 9 -3 12 -1 9 4 -14 23 16 8 31 -15 9 -14 23 -25 30 -25 8
0 14 -5 14 -12 0 -9 3 -9 12 0 13 13 8 22 -14 26 -19 3 -38 16 -38 27 0 5 11
8 25 6 14 -2 25 -7 24 -11 -1 -10 21 -26 36 -26 6 0 12 14 13 31 1 18 -2 28
-7 24 -6 -3 -8 -12 -4 -20 8 -24 -7 -17 -37 15 -15 16 -31 26 -35 22 -4 -4 -4
8 0 26 7 34 -1 44 -13 15z"/>
<path d="M1670 1521 c0 -6 5 -13 10 -16 6 -4 7 -11 4 -17 -4 -7 -2 -8 4 -4 9
5 9 13 2 27 -11 20 -20 25 -20 10z"/>
<path d="M967 1503 c4 -11 3 -14 -5 -9 -7 4 -12 3 -12 -2 0 -11 30 -26 44 -23
4 1 14 -4 22 -10 12 -10 13 -9 8 5 -6 15 -17 20 -36 17 -5 0 -7 2 -7 7 3 18
-2 32 -11 32 -5 0 -6 -7 -3 -17z"/>
<path d="M910 1484 c0 -8 5 -12 10 -9 6 4 8 11 5 16 -9 14 -15 11 -15 -7z"/>
<path d="M800 1470 c0 -5 4 -10 9 -10 6 0 13 5 16 10 3 6 -1 10 -9 10 -9 0
-16 -4 -16 -10z"/>
<path d="M1254 1469 c-6 -11 -7 -10 29 -15 15 -1 27 1 27 7 0 5 -3 9 -7 10 -5
0 -16 2 -25 4 -10 2 -20 -1 -24 -6z"/>
<path d="M777 1444 c-8 -8 1 -24 14 -24 5 0 9 7 9 15 0 15 -12 20 -23 9z"/>
<path d="M795 1410 c-3 -5 1 -10 9 -10 9 0 16 5 16 10 0 6 -4 10 -9 10 -6 0
-13 -4 -16 -10z"/>
<path d="M766 1402 c-8 -13 10 -34 25 -30 12 2 11 6 -3 20 -9 10 -19 14 -22
10z"/>
<path d="M840 1400 c-9 -6 -10 -10 -3 -10 6 0 15 5 18 10 8 12 4 12 -15 0z"/>
<path d="M838 1383 c-11 -3 -15 -10 -11 -20 4 -10 2 -14 -5 -9 -6 3 -13 2 -17
-4 -3 -5 -11 -10 -16 -10 -6 0 -7 5 -4 10 3 6 1 10 -5 10 -7 0 -9 -8 -4 -22 9
-32 14 -35 25 -16 10 18 37 14 51 -6 5 -8 8 -7 8 1 0 7 -7 16 -15 20 -21 12
-2 38 21 28 11 -5 25 -7 31 -6 8 1 10 -4 7 -14 -7 -17 -24 -21 -24 -5 0 6 -5
10 -11 10 -12 0 -1 -43 12 -48 17 -7 9 -21 -8 -15 -15 5 -16 4 -5 -8 11 -12
15 -11 27 4 7 11 11 25 9 32 -7 16 12 29 21 15 5 -8 11 -7 21 1 10 8 14 8 14
0 0 -6 5 -11 11 -11 6 0 9 8 6 19 -2 10 0 26 5 35 6 10 5 16 -2 16 -5 0 -10
-4 -10 -10 0 -5 -5 -10 -11 -10 -5 0 -7 5 -4 10 9 15 -4 12 -21 -5 -14 -13
-18 -13 -37 0 -22 15 -29 16 -59 8z m120 -26 c8 -10 5 -13 -15 -15 -22 -2 -24
0 -13 13 15 18 15 18 28 2z"/>
<path d="M2370 1381 c0 -6 4 -13 10 -16 6 -3 7 1 4 9 -7 18 -14 21 -14 7z"/>
<path d="M584 1372 c-13 -8 -16 -72 -4 -72 5 0 7 6 4 14 -7 19 22 28 37 10 9
-11 15 -11 25 -3 11 9 10 15 -9 35 -23 25 -35 28 -53 16z m39 -22 c9 -11 12
-20 7 -20 -6 0 -13 7 -16 15 -4 8 -10 12 -15 9 -5 -3 -9 0 -9 5 0 17 14 13 33
-9z"/>
<path d="M990 1360 c0 -5 5 -10 11 -10 5 0 7 5 4 10 -3 6 -8 10 -11 10 -2 0
-4 -4 -4 -10z"/>
<path d="M1240 1362 c0 -4 5 -13 12 -20 15 -15 -17 -53 -38 -45 -8 3 -14 0
-14 -5 0 -12 39 -27 47 -18 4 3 1 6 -6 6 -7 0 -9 5 -6 10 5 8 12 7 23 -2 12
-10 14 -10 8 0 -4 6 -3 12 1 12 5 0 9 9 10 20 1 11 -2 20 -8 20 -5 0 -9 7 -9
15 0 8 -4 15 -10 15 -5 0 -10 -4 -10 -8z"/>
<path d="M645 1310 c-3 -5 -12 -7 -20 -3 -9 3 -21 0 -29 -6 -7 -6 -20 -9 -29
-5 -16 6 -33 -28 -22 -45 8 -14 35 -2 35 15 0 8 7 14 15 14 8 0 15 5 15 10 0
6 5 10 11 10 5 0 7 -5 3 -12 -4 -6 -3 -8 3 -5 5 3 21 0 36 -8 27 -14 71 -10
62 6 -3 4 -11 7 -18 5 -7 -1 -8 -1 -4 2 5 2 -4 10 -18 18 -32 17 -32 17 -40 4z"/>
<path d="M820 1304 c0 -13 -3 -15 -8 -7 -5 7 -13 9 -21 3 -8 -5 -24 -4 -38 3
-29 13 -41 3 -20 -17 12 -12 17 -13 21 -3 3 6 4 0 1 -15 -4 -23 -2 -28 15 -28
11 0 20 5 20 11 0 5 -4 7 -10 4 -12 -8 -13 5 -1 24 6 9 11 10 15 2 4 -6 4 -11
-1 -12 -4 0 3 -5 17 -11 14 -6 31 -10 38 -9 8 1 16 -7 19 -19 3 -11 12 -19 21
-18 8 2 16 -4 17 -13 2 -12 -3 -15 -19 -11 -19 5 -20 4 -6 -13 8 -10 14 -20
12 -22 -2 -3 -1 -7 2 -10 3 -4 6 2 6 12 0 13 3 16 11 8 12 -12 59 -5 59 9 0 6
-7 7 -16 4 -14 -6 -15 -4 -4 9 11 13 11 16 -1 13 -8 -2 -17 -10 -21 -18 -5
-11 -7 -10 -7 6 -1 16 7 23 29 28 22 4 30 11 31 28 0 21 1 21 8 4 5 -14 10
-16 15 -8 4 7 5 16 2 21 -3 5 1 14 9 21 22 18 -6 43 -40 34 -20 -5 -25 -12
-24 -38 1 -29 1 -29 8 -6 7 25 51 43 51 20 0 -6 -4 -9 -8 -6 -12 7 -26 -6 -41
-39 -7 -16 -16 -25 -18 -18 -2 7 -11 9 -19 6 -16 -6 -17 -2 -8 22 5 12 9 13
14 4 5 -7 7 -2 7 13 l-2 26 -23 -24 c-13 -13 -21 -28 -17 -33 3 -7 0 -8 -9 -5
-9 3 -13 11 -9 17 3 6 1 7 -5 3 -11 -7 -36 27 -26 36 2 3 -2 11 -11 18 -12 10
-15 9 -15 -6z"/>
<path d="M590 1261 c0 -16 18 -22 23 -9 3 7 5 4 4 -8 -1 -15 -6 -20 -18 -17
-9 3 -20 0 -23 -6 -4 -7 -1 -8 8 -5 9 4 18 -1 22 -10 3 -9 12 -16 18 -16 7 0
13 -7 13 -15 0 -20 -10 -19 -32 5 -10 11 -26 20 -35 20 -9 0 -25 7 -36 15 -24
18 -31 19 -31 0 0 -12 25 -28 49 -30 13 0 21 -15 8 -15 -9 0 -8 -6 5 -20 17
-19 19 -19 37 -4 16 15 18 15 18 2 0 -9 7 -19 16 -22 24 -9 29 -7 16 6 -17 17
-15 25 9 31 13 4 18 10 14 17 -6 9 -10 9 -16 -1 -6 -10 -9 -10 -9 -2 0 6 5 15
11 18 20 13 67 16 74 5 3 -5 15 -10 26 -10 11 0 17 -5 14 -10 -4 -6 -16 -8
-28 -5 l-22 5 22 -11 c12 -6 25 -19 28 -27 5 -13 3 -13 -13 1 -10 9 -22 14
-25 10 -6 -6 -11 11 -8 29 0 4 -8 6 -19 5 -11 -1 -20 -4 -20 -8 0 -4 -3 -15
-6 -23 -4 -12 -2 -15 8 -11 9 4 29 -5 46 -19 16 -15 33 -26 38 -26 4 0 -1 7
-12 15 -18 14 -18 14 4 8 25 -6 30 14 10 36 -11 11 -10 13 2 9 17 -6 22 27 7
50 -10 15 -27 16 -27 1 0 -5 5 -7 10 -4 6 3 10 1 10 -4 0 -14 -17 -14 -25 -1
-4 6 -10 8 -15 5 -5 -3 -11 -1 -15 5 -3 5 1 10 9 10 9 0 13 6 10 13 -6 16 -76
17 -71 2 2 -5 9 -10 15 -10 5 0 14 -3 18 -7 4 -5 2 -8 -4 -8 -5 0 -18 -3 -27
-6 -9 -4 -15 -3 -14 2 3 20 -2 34 -12 34 -6 0 -8 -8 -4 -19 3 -11 1 -22 -5
-26 -6 -4 -10 -3 -9 2 1 4 1 20 0 36 -1 20 -6 27 -21 27 -11 0 -20 -4 -20 -9z
m14 -102 c-10 -16 -23 -9 -21 10 1 15 4 17 14 9 7 -5 10 -14 7 -19z"/>
<path d="M797 1243 c-13 -12 -7 -24 16 -32 25 -10 50 -3 41 10 -3 6 -14 7 -25
4 -14 -5 -17 -3 -13 9 6 16 -7 22 -19 9z"/>
<path d="M2354 1216 c-8 -22 -2 -27 16 -16 12 7 12 12 3 21 -10 10 -14 9 -19
-5z"/>
<path d="M1056 1205 c4 -8 11 -15 16 -15 6 0 5 6 -2 15 -7 8 -14 15 -16 15 -2
0 -1 -7 2 -15z"/>
<path d="M810 1189 c0 -5 5 -7 10 -4 6 3 10 8 10 11 0 2 -4 4 -10 4 -5 0 -10
-5 -10 -11z"/>
<path d="M1010 1189 c0 -5 7 -12 15 -15 8 -4 15 -12 15 -20 0 -20 13 -17 28 6
11 18 10 20 -9 20 -11 0 -18 4 -15 8 2 4 -4 9 -15 9 -10 1 -19 -3 -19 -8z"/>
<path d="M824 1167 c-11 -13 -19 -28 -16 -35 2 -7 -1 -12 -7 -12 -6 0 -11 -11
-11 -24 0 -24 -1 -24 -30 -10 -16 9 -30 21 -30 27 0 8 -3 7 -9 -2 -6 -9 -16
-11 -32 -5 -13 4 -34 7 -46 5 -13 -1 -23 2 -23 8 0 5 -13 8 -28 7 -23 -3 -30
1 -41 25 -13 29 -35 42 -25 14 4 -8 1 -15 -5 -15 -8 0 -9 -6 -2 -17 9 -18 11
-25 11 -43 0 -5 12 -10 28 -10 21 0 24 2 12 10 -12 7 -12 12 -2 22 12 12 16 1
15 -39 -1 -18 22 -16 42 3 8 9 22 14 29 11 7 -3 19 0 26 6 10 10 10 7 1 -10
-6 -13 -20 -23 -31 -23 -10 0 -22 -5 -25 -10 -4 -6 7 -8 29 -5 21 2 36 0 36
-6 0 -6 -4 -8 -9 -5 -11 7 -23 -22 -16 -35 4 -5 -1 -6 -9 -3 -9 3 -13 11 -9
18 4 6 -1 5 -10 -3 -9 -7 -14 -18 -10 -25 3 -6 0 -5 -8 2 -11 10 -11 14 -1 21
10 6 10 10 -3 21 -13 11 -18 10 -33 -2 -21 -19 -42 -13 -42 13 0 13 5 17 18
12 14 -5 15 -3 5 8 -10 10 -16 10 -25 1 -13 -13 -29 -16 -25 -4 1 4 -3 8 -8
10 -9 2 -10 -5 -6 -39 0 -5 6 -7 12 -4 6 4 19 -2 30 -14 21 -22 10 -30 -13 -8
-14 13 -48 19 -48 8 0 -3 14 -12 30 -19 20 -9 30 -21 30 -35 0 -17 2 -19 9 -7
6 8 7 18 4 23 -3 5 3 4 14 -2 11 -5 32 -8 46 -5 21 3 25 1 21 -11 -4 -10 -2
-15 6 -13 8 2 14 -8 15 -24 1 -16 -2 -28 -7 -28 -13 0 -9 -17 6 -23 8 -3 20 2
28 11 9 11 10 14 1 8 -19 -10 -16 19 2 34 19 16 20 34 1 27 -15 -6 -43 19 -33
29 10 10 28 -7 20 -19 -3 -7 3 -4 13 5 18 16 23 16 40 3 17 -13 17 -14 2 -15
-22 0 -24 -26 -2 -34 8 -3 12 -11 8 -17 -4 -7 0 -9 14 -5 15 5 21 1 24 -16 3
-13 9 -32 13 -43 7 -16 6 -18 -6 -7 -16 14 -29 16 -29 2 0 -5 11 -12 25 -16
14 -3 22 -10 19 -15 -3 -5 -10 -7 -15 -4 -5 4 -9 1 -9 -5 0 -17 -20 -1 -29 24
-7 16 -4 24 13 33 11 7 15 12 8 13 -8 0 -10 5 -6 13 7 12 -45 -30 -57 -47 -9
-11 21 -46 39 -46 8 0 12 -6 9 -12 -3 -8 5 -14 19 -14 13 -1 22 2 19 6 -3 5 1
12 8 17 11 6 13 23 10 65 -5 49 -8 57 -29 62 -23 6 -31 30 -25 74 2 10 -4 12
-18 7 -12 -4 -21 -2 -21 4 0 6 11 11 24 11 14 0 28 5 32 12 4 7 3 8 -5 4 -7
-5 -17 5 -26 26 -11 25 -15 28 -16 13 -1 -11 -1 -24 0 -30 0 -5 -8 -20 -17
-33 l-18 -23 1 23 c1 21 10 49 23 72 3 5 0 6 -6 2 -8 -4 -10 -2 -6 8 7 17 34
30 34 16 0 -6 6 -10 14 -10 7 0 20 -7 27 -16 12 -15 11 -16 -10 -9 -17 5 -22
4 -19 -6 3 -8 14 -14 25 -15 11 -1 27 -4 34 -8 8 -4 7 -2 -2 5 -14 10 -13 18
10 76 16 42 30 62 38 59 7 -3 13 1 13 9 0 21 -13 18 -36 -8z m-274 -36 c6 -11
6 -22 1 -25 -5 -3 -11 5 -13 19 -6 30 -2 32 12 6z m65 -30 c3 -5 2 -12 -3 -15
-5 -3 -9 1 -9 9 0 17 3 19 12 6z m-17 -98 c-2 -9 -8 -18 -15 -20 -7 -3 -9 3
-6 16 6 25 26 28 21 4z"/>
<path d="M690 1130 c-13 -8 -12 -10 3 -10 9 0 17 5 17 10 0 12 -1 12 -20 0z"/>
<path d="M1019 1127 c-5 -11 -2 -67 3 -67 7 0 42 59 36 61 -11 3 -38 7 -39 6z
m24 -22 c-3 -9 -8 -14 -10 -11 -3 3 -2 9 2 15 9 16 15 13 8 -4z"/>
<path d="M2430 1079 c-24 -20 -24 -20 -1 -9 17 9 26 9 34 1 8 -8 8 -11 0 -11
-7 0 -10 -10 -8 -23 4 -19 0 -23 -22 -22 -17 0 -27 -6 -29 -17 -1 -10 2 -18 7
-18 13 0 11 -34 -3 -49 -11 -11 -10 -13 2 -9 21 6 39 60 23 65 -7 3 -13 9 -13
15 0 7 5 6 14 -1 7 -6 22 -8 32 -4 18 6 18 6 0 -15 -19 -22 -19 -22 0 -23 10
0 13 -3 7 -6 -10 -3 -9 -11 2 -34 14 -26 14 -28 -1 -22 -12 4 -15 2 -12 -8 8
-24 36 -22 40 3 4 23 4 23 18 -4 15 -32 31 -37 23 -8 -3 11 -9 20 -14 20 -5 0
-6 7 -3 15 5 12 9 13 21 4 7 -7 12 -18 9 -26 -4 -10 -1 -11 14 -3 16 9 18 7
15 -10 -2 -11 0 -18 4 -15 13 8 34 -23 27 -40 -3 -8 -1 -15 4 -15 5 0 7 -7 4
-15 -4 -8 -1 -15 5 -15 6 0 11 5 11 10 0 6 5 10 10 10 6 0 10 -9 10 -21 0 -18
2 -19 15 -5 17 17 20 36 5 36 -5 0 -10 9 -10 21 0 11 -4 18 -9 15 -4 -3 -14 7
-20 21 -11 23 -10 29 5 40 10 7 21 13 26 13 4 0 5 7 2 15 -5 11 -11 12 -25 4
-11 -5 -17 -14 -14 -18 3 -5 -3 -12 -12 -15 -12 -5 -14 -9 -5 -18 7 -7 12 -16
12 -21 0 -5 -7 -2 -15 7 -9 8 -14 21 -13 28 2 7 -3 12 -10 10 -8 -1 -11 2 -6
9 4 7 1 10 -7 7 -8 -3 -19 2 -26 11 -10 14 -13 14 -30 -2 -24 -21 -29 -21 -37
-1 -3 8 -2 13 3 9 13 -8 41 5 41 19 0 7 -6 13 -14 13 -8 0 -14 -3 -13 -6 1 -3
-2 -7 -8 -8 -5 -2 -10 2 -10 9 0 7 14 16 32 21 31 9 51 42 29 50 -6 3 -21 -5
-33 -16 -20 -18 -23 -18 -38 -3 -17 17 -13 20 19 16 10 -1 28 9 39 21 19 20
19 22 3 16 -10 -4 -25 -2 -32 4 -7 6 -18 8 -24 4 -5 -3 -10 -1 -10 4 0 16 -12
13 -40 -10z m224 -257 c3 -5 -1 -9 -9 -9 -8 0 -15 4 -15 9 0 4 4 8 9 8 6 0 12
-4 15 -8z"/>
<path d="M1010 946 l-10 -31 25 29 c29 34 29 33 10 33 -8 0 -19 -14 -25 -31z"/>
<path d="M2630 963 c0 -9 -3 -13 -7 -10 -3 4 -12 2 -19 -4 -10 -8 -11 -14 -1
-24 10 -10 15 -8 29 14 20 30 22 41 8 41 -5 0 -10 -7 -10 -17z"/>
<path d="M495 960 c-3 -5 3 -10 14 -10 12 0 21 5 21 10 0 6 -6 10 -14 10 -8 0
-18 -4 -21 -10z"/>
<path d="M790 954 c0 -8 4 -12 10 -9 5 3 20 -1 34 -10 23 -15 25 -15 35 2 9
17 7 19 -20 15 -17 -3 -29 0 -29 7 0 6 -7 11 -15 11 -8 0 -15 -7 -15 -16z"/>
<path d="M2560 961 c0 -5 5 -13 10 -16 6 -3 10 -2 10 4 0 5 -4 13 -10 16 -5 3
-10 2 -10 -4z"/>
<path d="M690 908 c0 -18 17 -42 22 -32 8 16 3 37 -9 42 -7 2 -13 -2 -13 -10z"/>
<path d="M430 898 c0 -8 6 -20 12 -26 10 -10 10 -15 -2 -22 -11 -7 -11 -10 -2
-10 7 0 10 -5 6 -11 -4 -7 -1 -10 7 -7 8 3 14 14 14 26 0 11 4 23 8 26 4 4 5
3 2 0 -2 -4 0 -15 6 -25 6 -13 6 -19 -1 -19 -5 0 -10 -11 -10 -25 0 -23 2 -24
20 -15 11 6 20 7 20 3 0 -4 5 -2 12 5 8 8 15 8 24 1 9 -7 19 -4 34 11 20 20
23 20 46 5 22 -14 24 -14 24 1 0 19 10 13 14 -8 7 -38 19 -58 37 -58 11 0 19
7 19 17 0 9 -3 14 -6 10 -12 -12 -31 18 -28 43 4 21 0 25 -21 26 -14 1 -25 -3
-25 -8 0 -6 -6 -8 -12 -5 -45 16 -60 19 -53 7 5 -8 -3 -10 -26 -8 -24 2 -39
-3 -52 -17 -18 -19 -18 -19 -2 6 13 22 14 31 4 53 -8 17 -18 25 -27 21 -8 -3
-21 0 -28 6 -11 9 -14 8 -14 -3z"/>
<path d="M1016 891 c-15 -6 -9 -12 32 -33 34 -18 49 -22 45 -12 -3 8 -9 14
-14 14 -4 0 -16 8 -26 19 -12 12 -25 16 -37 12z"/>
<path d="M1074 888 c-5 -8 3 -12 19 -9 4 0 7 -6 7 -15 0 -8 5 -12 11 -8 8 4 9
-1 4 -16 -5 -16 -4 -21 6 -18 8 3 14 16 15 30 1 14 4 30 8 36 5 8 -5 11 -29
10 -20 -1 -38 -5 -41 -10z"/>
<path d="M406 865 c4 -9 11 -14 16 -13 15 5 11 23 -6 26 -11 2 -14 -2 -10 -13z"/>
<path d="M1164 845 c-27 -25 -27 -26 -8 -40 23 -17 40 -19 49 -4 11 17 -3 23
-21 8 -15 -12 -16 -11 -9 11 4 14 14 31 23 38 9 6 11 12 4 12 -6 0 -23 -11
-38 -25z"/>
<path d="M390 844 c0 -8 -4 -13 -9 -9 -6 3 -14 -3 -20 -13 -14 -26 -7 -77 10
-77 8 0 17 -4 20 -9 4 -4 10 -3 14 4 4 7 -1 13 -12 16 -24 6 -24 42 -1 55 20
11 48 1 48 -17 0 -8 5 -14 11 -14 5 0 8 -3 6 -7 -2 -5 1 -24 9 -43 7 -19 13
-29 13 -22 1 7 5 11 10 8 12 -8 41 3 41 15 0 5 -12 10 -27 10 -21 1 -23 2 -8
6 11 3 26 10 33 15 9 8 12 6 12 -7 0 -15 2 -16 18 -4 16 13 16 12 3 -4 -13
-16 -13 -20 0 -28 19 -12 26 -11 32 5 9 22 -15 46 -48 49 -17 1 -33 7 -37 12
-4 6 -8 2 -8 -7 0 -29 -17 -21 -47 21 -34 48 -63 69 -63 45z"/>
<path d="M2464 844 c9 -8 14 -20 11 -25 -4 -5 1 -9 9 -9 22 0 20 27 -3 40 -28
15 -35 12 -17 -6z"/>
<path d="M2697 831 c-2 -10 0 -25 4 -34 7 -11 4 -19 -8 -26 -10 -5 -15 -13
-11 -16 4 -4 16 2 28 13 12 11 17 23 12 26 -5 3 -7 17 -4 31 5 29 -13 35 -21
6z"/>
<path d="M399 807 c-12 -35 21 -81 43 -59 9 9 9 12 -2 13 -8 1 -19 1 -25 -1
-5 -1 -4 4 3 11 16 17 15 26 -3 33 -8 3 -15 4 -16 3z"/>
<path d="M2156 795 c-2 -7 0 -18 5 -26 8 -13 13 -5 10 15 -1 5 6 5 16 1 10 -3
23 -7 28 -8 6 -1 13 -6 17 -11 9 -14 48 -18 48 -5 0 5 4 8 9 5 10 -6 25 24 16
32 -3 3 -5 0 -5 -7 0 -7 -4 -9 -10 -6 -5 3 -10 1 -10 -5 0 -12 -41 -4 -50 10
-9 13 -69 17 -74 5z"/>
<path d="M2509 800 c0 -8 -2 -24 -4 -35 -4 -18 1 -21 36 -22 27 -1 39 2 36 10
-2 7 -9 13 -15 13 -7 1 -15 3 -19 4 -5 1 -12 2 -16 1 -5 -1 -6 2 -3 7 2 4 1
14 -5 22 -7 13 -9 13 -10 0z"/>
<path d="M320 770 c0 -5 5 -10 10 -10 6 0 10 5 10 10 0 6 -4 10 -10 10 -5 0
-10 -4 -10 -10z"/>
<path d="M1385 770 c3 -5 8 -10 11 -10 2 0 4 5 4 10 0 6 -5 10 -11 10 -5 0 -7
-4 -4 -10z"/>
<path d="M2427 763 c-4 -3 -7 -11 -7 -17 0 -6 5 -5 12 2 6 6 9 14 7 17 -3 3
-9 2 -12 -2z"/>
<path d="M945 751 c-3 -5 4 -13 16 -16 28 -9 36 1 10 14 -12 7 -22 7 -26 2z"/>
<path d="M327 744 c-13 -13 -7 -34 9 -34 10 0 14 5 10 16 -3 9 -2 12 5 8 6 -3
8 -17 4 -31 -5 -22 -3 -24 16 -18 16 5 19 4 14 -6 -6 -9 -2 -11 14 -6 12 3 27
0 34 -7 13 -14 37 -10 37 5 0 6 -4 7 -10 4 -5 -3 -22 1 -37 10 -21 12 -23 15
-8 13 23 -3 45 9 45 24 0 7 -6 6 -15 -2 -10 -8 -15 -9 -15 -1 0 6 -11 10 -24
9 -14 -1 -24 -5 -24 -8 2 -21 -4 -21 -15 -1 -13 26 -29 36 -40 25z"/>
<path d="M912 734 c-13 -14 -8 -54 5 -40 5 5 15 57 10 56 -1 -1 -8 -8 -15 -16z"/>
<path d="M2100 715 c0 -9 6 -12 15 -9 8 4 15 7 15 9 0 2 -7 5 -15 9 -9 3 -15
0 -15 -9z"/>
<path d="M2280 714 c6 -6 20 -10 31 -7 25 7 16 17 -16 19 -19 1 -22 -2 -15
-12z"/>
<path d="M530 694 c0 -10 6 -14 15 -10 8 3 14 1 12 -5 -1 -6 8 -15 21 -20 12
-5 22 -5 22 0 0 5 -6 12 -12 14 -10 4 -9 8 2 17 13 10 13 11 -2 6 -10 -3 -20
-1 -23 4 -10 16 -35 11 -35 -6z"/>
<path d="M2069 693 c10 -19 10 -22 12 -50 1 -12 4 -10 9 7 l8 25 1 -27 c1 -14
-3 -28 -8 -30 -5 -1 -12 -16 -15 -33 -5 -23 -4 -25 3 -10 8 18 9 19 16 3 9
-22 22 -23 22 -3 0 8 -7 17 -16 20 -13 5 -11 9 9 20 14 8 20 14 14 15 -12 0
-12 35 -1 47 4 3 13 -2 21 -12 7 -10 18 -15 23 -12 6 4 11 1 10 -6 -1 -29 4
-47 12 -47 5 0 8 17 6 38 -2 21 -8 36 -14 35 -6 -2 -11 5 -11 15 0 13 -2 14
-9 3 -6 -8 -14 -10 -22 -5 -8 5 -22 7 -31 6 -10 -2 -18 2 -18 7 0 6 -7 11 -15
11 -12 0 -13 -4 -6 -17z"/>
<path d="M940 689 c0 -5 5 -7 10 -4 6 3 10 8 10 11 0 2 -4 4 -10 4 -5 0 -10
-5 -10 -11z"/>
<path d="M511 669 c2 -13 0 -29 -4 -36 -5 -8 0 -17 13 -25 11 -7 20 -20 19
-28 0 -10 -2 -11 -6 -2 -8 20 -23 14 -23 -10 1 -27 27 -65 37 -54 4 4 3 15 -3
24 -7 12 -7 24 2 41 11 21 12 21 16 5 2 -11 -2 -49 -9 -85 -14 -76 -12 -125 4
-154 11 -17 12 -15 8 17 -5 36 -4 37 13 20 11 -9 17 -20 15 -24 -6 -12 15 -9
22 2 3 6 15 10 27 10 15 0 19 -5 15 -19 -3 -12 0 -18 9 -17 22 3 28 15 16 29
-7 8 -8 18 -4 22 4 5 2 5 -5 1 -6 -3 -14 -2 -17 3 -3 5 1 11 9 15 13 4 13 9 0
40 -19 44 -19 46 1 46 11 0 14 -6 10 -22 -3 -13 -3 -17 0 -10 3 6 9 12 14 12
23 0 60 21 55 31 -5 7 -13 5 -24 -5 -29 -26 -34 -18 -6 11 14 15 25 31 25 35
0 5 5 8 12 8 9 0 9 -3 0 -12 -15 -15 -16 -32 -2 -23 6 3 10 -1 10 -9 0 -8 4
-18 10 -21 6 -4 7 1 4 12 -5 17 -5 17 9 1 8 -10 22 -18 31 -18 22 0 21 -20 -1
-21 -12 0 -13 -2 -5 -6 7 -3 20 1 29 8 14 12 15 11 8 -10 -5 -15 -4 -21 3 -17
6 3 13 2 16 -3 3 -5 -4 -11 -15 -14 -12 -3 -18 -10 -14 -17 5 -8 11 -7 23 2
13 11 14 11 8 0 -5 -9 -3 -13 5 -11 33 4 40 0 27 -20 -10 -16 -14 -17 -25 -5
-20 20 -33 17 -33 -7 0 -12 -4 -17 -11 -13 -6 3 -8 17 -5 30 5 17 2 23 -6 22
-20 -4 -28 -22 -15 -30 8 -5 5 -10 -10 -14 -22 -6 -32 -24 -14 -24 5 0 7 -13
5 -30 -3 -17 -1 -30 5 -30 6 0 11 4 11 9 0 6 9 8 19 6 11 -2 27 3 38 10 17 13
16 14 -11 12 -17 -1 -31 4 -34 11 -3 11 0 12 17 3 17 -10 22 -9 27 3 3 8 3 20
-1 26 -4 7 1 6 14 -2 24 -15 27 -24 9 -31 -10 -4 -10 -6 0 -6 7 -1 18 12 23
29 6 16 15 27 20 24 5 -3 14 -2 19 1 7 4 -2 19 -20 38 -16 17 -30 34 -30 39 0
4 -7 8 -17 8 -21 0 -12 9 16 15 17 3 21 -1 21 -22 0 -15 3 -23 6 -20 4 3 14 2
23 -3 10 -5 23 -5 31 0 9 5 20 4 30 -3 13 -11 13 -10 1 6 -12 15 -11 17 5 17
15 0 13 4 -10 19 l-30 20 32 29 c36 34 39 42 16 42 -8 0 -13 -4 -10 -9 3 -5
-5 -16 -19 -25 -23 -15 -24 -15 -18 1 4 11 3 14 -5 9 -7 -4 -12 -1 -12 8 0 9
-4 16 -9 16 -4 0 -6 -11 -3 -25 4 -25 -11 -35 -24 -14 -3 6 -15 8 -26 6 -12
-4 -18 -1 -15 6 2 7 14 12 26 11 27 -1 27 17 0 35 -20 12 -21 11 -15 -4 5 -15
4 -16 -8 -6 -16 13 -36 7 -36 -11 0 -5 7 -7 16 -4 12 4 15 2 10 -9 -3 -8 -3
-22 1 -31 5 -13 7 -13 14 -2 6 8 9 9 9 1 0 -6 12 -10 28 -9 19 1 34 -6 50 -26
l23 -27 -25 -7 c-27 -6 -46 1 -46 19 0 8 3 8 12 -1 15 -15 42 -16 33 -2 -4 6
-11 7 -17 4 -8 -5 -9 -1 -5 10 6 14 3 16 -13 11 -11 -4 -20 -2 -20 4 0 7 -8 7
-25 1 -20 -8 -27 -5 -40 13 -8 12 -15 18 -15 14 0 -5 -14 0 -31 10 -21 12 -29
24 -25 36 3 13 0 17 -11 13 -8 -3 -21 -6 -29 -6 -8 0 -14 -6 -14 -14 0 -8 -7
-22 -16 -31 -12 -12 -19 -13 -30 -4 -11 9 -14 9 -14 0 0 -7 -4 -9 -10 -6 -9 5
-15 -15 -11 -37 0 -5 -4 -8 -9 -8 -12 0 -12 -2 -1 38 6 18 6 30 1 27 -4 -3
-11 1 -14 7 -3 7 -3 2 0 -11 5 -18 3 -23 -8 -19 -9 4 -14 -2 -16 -19 -1 -14 2
-21 8 -18 6 3 10 -1 10 -10 0 -9 -4 -13 -10 -10 -5 3 -10 1 -10 -4 0 -15 13
-14 29 2 11 10 13 9 8 -5 -4 -10 -2 -18 3 -18 5 0 8 -9 7 -20 -1 -11 -6 -18
-12 -16 -5 2 -9 9 -7 15 1 7 -10 10 -33 7 -19 -3 -35 0 -35 5 0 5 5 9 10 9 6
0 10 5 10 11 0 5 -4 7 -10 4 -5 -3 -10 -1 -10 4 0 6 7 11 16 11 13 0 15 8 12
39 -2 28 0 37 9 34 19 -8 16 14 -4 27 -16 10 -15 11 5 7 19 -4 22 -1 22 24 0
16 -5 29 -11 29 -5 0 -7 -5 -4 -11 4 -6 -2 -5 -14 3 -12 7 -21 16 -21 21 0 4
-10 3 -22 -3 -21 -10 -22 -10 -5 4 11 8 30 12 45 10 29 -6 29 -6 -12 20 -16
10 -25 13 -22 7 4 -6 0 -11 -8 -11 -9 0 -13 6 -10 14 3 8 0 17 -6 21 -8 5 -11
-1 -9 -16z m89 -95 c0 -2 -7 -4 -15 -4 -8 0 -15 4 -15 10 0 5 7 7 15 4 8 -4
15 -8 15 -10z"/>
<path d="M1463 671 c-6 -24 0 -35 22 -39 19 -2 19 -2 1 11 -15 11 -16 16 -6
22 9 5 11 4 6 -3 -4 -7 -2 -12 3 -12 6 0 11 8 11 18 0 23 -31 25 -37 3z"/>
<path d="M410 649 c0 -5 5 -7 10 -4 6 3 10 8 10 11 0 2 -4 4 -10 4 -5 0 -10
-5 -10 -11z"/>
<path d="M1016 641 c-4 -7 -5 -15 -2 -18 9 -9 19 4 14 18 -4 11 -6 11 -12 0z"/>
<path d="M2050 626 c0 -9 5 -16 10 -16 6 0 10 4 10 9 0 6 -4 13 -10 16 -5 3
-10 -1 -10 -9z"/>
<path d="M1990 595 c-7 -13 -16 -24 -19 -23 -23 2 -29 -5 -25 -29 7 -35 14
-43 14 -15 0 23 33 32 45 12 3 -5 11 -10 16 -10 6 0 7 5 3 12 -5 8 -2 9 9 5
10 -3 17 -3 18 1 0 4 2 15 4 24 2 14 -2 16 -26 11 -30 -6 -37 5 -17 25 7 7 8
12 2 12 -6 0 -17 -11 -24 -25z"/>
<path d="M1020 599 c0 -5 5 -7 10 -4 6 3 10 8 10 11 0 2 -4 4 -10 4 -5 0 -10
-5 -10 -11z"/>
<path d="M1820 580 c0 -6 5 -8 10 -5 10 6 14 -6 10 -40 -3 -29 17 -6 22 25 2
20 -2 26 -19 28 -13 2 -23 -2 -23 -8z"/>
<path d="M1505 572 c-13 -9 -18 -82 -6 -82 5 0 7 10 4 23 -4 18 -3 19 6 7 9
-12 11 -7 9 23 -1 20 -2 37 -3 37 0 0 -4 -4 -10 -8z"/>
<path d="M2330 560 c0 -5 5 -10 10 -10 6 0 10 5 10 10 0 6 -4 10 -10 10 -5 0
-10 -4 -10 -10z"/>
<path d="M2365 560 c4 -6 11 -8 16 -5 14 9 11 15 -7 15 -8 0 -12 -5 -9 -10z"/>
<path d="M2440 560 c-13 -9 -13 -11 0 -20 20 -13 40 -13 40 1 0 6 -7 9 -14 6
-10 -4 -13 -1 -9 9 6 16 3 17 -17 4z"/>
<path d="M1973 525 c-3 -9 -3 -19 1 -22 3 -4 6 -1 6 6 0 7 4 10 8 7 5 -3 9 1
9 9 0 20 -16 19 -24 0z"/>
<path d="M1030 511 c-8 -6 -17 -8 -21 -5 -4 2 -10 -3 -13 -12 -5 -12 -2 -15 9
-10 10 3 13 2 10 -5 -4 -6 1 -16 11 -23 15 -11 20 -11 32 0 7 8 18 11 24 8 7
-5 8 -2 4 5 -6 8 -2 11 10 9 13 -2 20 4 22 17 2 15 -3 20 -23 21 -20 2 -23 -1
-15 -11 8 -9 8 -15 0 -20 -15 -9 -30 3 -23 20 6 17 -5 19 -27 6z m16 -21 c0
-11 -4 -20 -8 -20 -10 0 -11 24 -1 33 9 9 9 10 9 -13z"/>
<path d="M740 467 c0 -7 -11 -13 -27 -12 -19 0 -29 -6 -31 -18 -3 -15 1 -17
25 -11 15 4 35 13 44 20 9 8 19 11 22 7 12 -12 7 -21 -15 -26 -19 -5 -20 -8
-7 -24 11 -15 9 -14 -10 2 -14 11 -21 14 -16 6 6 -11 3 -13 -14 -8 -17 4 -21
2 -17 -10 3 -8 6 -21 6 -29 0 -8 4 -14 9 -14 5 0 7 9 4 20 -5 18 -2 19 25 14
24 -5 32 -2 41 14 7 13 17 18 30 15 10 -3 22 0 25 6 4 6 1 11 -7 11 -7 0 -23
11 -35 25 -23 27 -52 33 -52 12z"/>
<path d="M1221 432 c-13 -25 -14 -32 -2 -32 9 0 23 41 16 48 -2 2 -8 -5 -14
-16z"/>
<path d="M500 385 c0 -8 7 -15 15 -15 8 0 15 7 15 15 0 8 -7 15 -15 15 -8 0
-15 -7 -15 -15z"/>
<path d="M1513 385 c-9 -25 4 -29 17 -6 7 15 7 21 0 21 -6 0 -13 -7 -17 -15z"/>
<path d="M522 348 c2 -6 10 -14 16 -16 7 -2 10 2 6 12 -7 18 -28 22 -22 4z"/>
<path d="M617 349 c-9 -6 -17 -14 -17 -19 0 -17 27 -11 34 6 8 22 5 25 -17 13z"/>
<path d="M940 353 c-29 -12 -72 -65 -60 -77 7 -7 10 -6 10 2 0 7 11 12 25 12
16 0 25 6 25 15 0 8 -5 15 -11 15 -6 0 -1 9 12 20 25 20 25 23 -1 13z"/>
<path d="M700 330 c0 -5 5 -10 10 -10 6 0 10 5 10 10 0 6 -4 10 -10 10 -5 0
-10 -4 -10 -10z"/>
<path d="M633 305 c-13 -10 -11 -11 15 -7 18 2 32 8 32 11 0 12 -29 9 -47 -4z"/>
<path d="M690 252 c0 -6 -3 -18 -7 -28 -5 -13 -3 -16 8 -12 9 4 20 -2 27 -13
15 -24 36 -25 27 -1 -5 14 -4 15 6 5 17 -17 29 -16 29 3 0 8 -4 13 -9 10 -5
-3 -12 2 -15 11 -6 15 -8 15 -17 3 -8 -13 -13 -11 -29 9 -11 13 -20 19 -20 13z"/>
<path d="M825 189 c-9 -27 -1 -33 25 -19 17 9 19 14 9 26 -16 20 -27 18 -34
-7z"/>
<path d="M690 190 c-13 -9 -13 -10 0 -11 8 -1 18 -1 23 0 4 0 7 -3 7 -9 0 -5
-7 -10 -15 -10 -9 0 -12 -6 -9 -15 8 -20 17 -19 31 4 10 15 9 22 -5 34 -12 11
-22 13 -32 7z"/>
<path d="M1323 150 c-3 -17 -10 -33 -14 -36 -5 -3 -2 -12 6 -20 19 -20 19 -38
0 -30 -8 3 -15 1 -15 -4 0 -6 6 -10 14 -10 8 0 17 -11 20 -25 7 -28 46 -36 46
-10 0 8 5 15 11 15 6 0 8 -7 5 -16 -5 -14 -4 -15 9 -4 12 10 15 10 15 -1 0
-11 2 -11 10 1 14 22 12 28 -7 26 -10 0 -17 4 -16 11 2 12 -21 12 -33 0 -4 -4
-13 -7 -21 -7 -17 0 -17 27 0 33 7 3 5 6 -5 6 -34 2 -18 17 17 17 22 0 35 -5
35 -13 0 -16 16 -17 26 -1 4 6 3 8 -3 5 -10 -6 -25 14 -27 36 -1 4 -7 11 -14
16 -11 7 -10 10 3 15 22 8 36 -1 28 -19 -4 -11 -1 -13 11 -9 9 3 16 2 16 -4 0
-6 -6 -13 -12 -15 -8 -3 -6 -6 5 -6 21 -1 22 18 1 48 -11 15 -23 21 -35 18
-11 -3 -19 -1 -19 4 0 5 -11 9 -25 9 -20 0 -27 -6 -32 -30z m34 -25 c8 -9 12
-19 8 -23 -4 -4 -10 -2 -12 5 -2 7 -10 11 -16 9 -7 -1 -9 -1 -4 1 4 3 5 9 1
14 -9 15 6 10 23 -6z"/>
<path d="M1060 145 c5 -7 7 -14 4 -18 -3 -3 3 -3 14 0 16 4 18 8 9 17 -15 17
-40 17 -27 1z"/>
<path d="M730 135 c0 -8 7 -15 15 -15 8 0 15 4 15 9 0 5 -7 11 -15 15 -9 3
-15 0 -15 -9z"/>
<path d="M925 40 c-3 -5 -1 -10 4 -10 6 0 11 5 11 10 0 6 -2 10 -4 10 -3 0 -8
-4 -11 -10z"/>
<path d="M950 40 c0 -5 5 -10 10 -10 6 0 10 5 10 10 0 6 -4 10 -10 10 -5 0
-10 -4 -10 -10z"/>
</g>
</svg>
